<?xml version="1.0" standalone="no"?>
<!DOCTYPE svg PUBLIC "-//W3C//DTD SVG 20010904//EN"
 "http://www.w3.org/TR/2001/REC-SVG-20010904/DTD/svg10.dtd">
<svg version="1.0" xmlns="http://www.w3.org/2000/svg"
 width="1200.000000pt" height="1024.000000pt" viewBox="0 0 1200.000000 1024.000000"
 preserveAspectRatio="xMidYMid meet">
<g transform="translate(0.000000,1024.000000) scale(0.100000,-0.100000)"
fill="#000000" stroke="none">
<path d="M3360 10230 c0 -5 12 -32 27 -59 25 -44 26 -51 14 -74 -8 -14 -11
-32 -8 -40 3 -8 -3 -23 -14 -33 -11 -10 -19 -30 -19 -50 0 -25 -7 -38 -25 -50
-14 -9 -25 -24 -25 -34 0 -9 -8 -27 -19 -38 -10 -12 -21 -45 -24 -73 -4 -29
-14 -60 -23 -70 -12 -13 -19 -49 -26 -121 -5 -57 -13 -116 -18 -131 -7 -21 -5
-39 5 -64 23 -54 20 -144 -5 -166 -14 -12 -20 -29 -20 -59 0 -25 -8 -57 -20
-76 -30 -49 -29 -235 1 -287 20 -34 21 -45 17 -248 -4 -175 -8 -218 -22 -244
-15 -28 -18 -77 -23 -370 -4 -285 -8 -343 -21 -368 -24 -45 -31 -525 -8 -580
11 -25 18 -87 22 -194 5 -133 9 -160 26 -184 43 -62 33 -124 -25 -153 -18 -9
-36 -23 -40 -30 -4 -8 -14 -14 -22 -14 -8 0 -20 -10 -26 -22 -7 -13 -21 -29
-32 -37 -27 -19 -22 -227 6 -259 13 -14 20 -47 27 -123 5 -57 14 -120 20 -139
6 -19 14 -89 17 -155 4 -94 9 -126 23 -146 10 -14 22 -48 26 -75 4 -27 15 -60
24 -74 10 -14 21 -49 24 -79 3 -30 13 -62 21 -71 9 -10 19 -44 22 -76 3 -33
14 -75 25 -94 10 -19 18 -55 18 -80 1 -30 9 -58 25 -85 17 -28 25 -55 25 -88
0 -28 8 -64 20 -87 14 -27 20 -59 20 -103 0 -54 4 -67 24 -86 13 -13 27 -34
30 -47 4 -14 22 -32 45 -44 22 -11 44 -31 50 -47 6 -15 18 -39 26 -53 8 -14
15 -49 15 -78 0 -39 6 -61 20 -79 14 -18 20 -41 20 -79 0 -37 7 -67 25 -100
20 -38 25 -61 25 -124 0 -60 4 -83 18 -101 11 -13 22 -44 26 -68 4 -24 16 -56
26 -71 11 -16 20 -44 20 -64 0 -21 7 -42 19 -53 10 -10 22 -32 25 -49 4 -18
16 -40 27 -50 10 -9 19 -27 19 -39 0 -11 11 -36 25 -55 14 -19 25 -41 25 -50
0 -9 9 -25 20 -35 11 -10 20 -28 20 -40 0 -12 12 -32 26 -44 26 -23 26 -23 19
-264 -6 -210 -9 -247 -26 -280 -10 -21 -19 -51 -19 -68 0 -16 -11 -52 -25 -79
-14 -27 -25 -55 -25 -61 0 -6 -18 -47 -40 -91 -22 -44 -40 -85 -40 -90 0 -5
-9 -22 -20 -36 -93 -121 -121 -154 -165 -198 -28 -27 -65 -70 -83 -96 -18 -27
-39 -48 -46 -48 -7 0 -23 -9 -36 -20 -13 -11 -34 -23 -46 -26 -12 -3 -25 -12
-28 -19 -2 -7 -18 -16 -35 -20 -17 -4 -33 -15 -36 -26 -4 -10 -12 -19 -20 -19
-7 0 -27 -11 -43 -25 -17 -14 -37 -25 -45 -25 -9 0 -22 -8 -29 -19 -7 -10 -24
-21 -36 -26 -13 -4 -33 -16 -43 -26 -10 -10 -27 -19 -37 -19 -11 0 -27 -9 -36
-19 -10 -11 -31 -23 -48 -26 -16 -4 -34 -15 -41 -26 -8 -12 -23 -19 -44 -19
-19 0 -40 -8 -50 -19 -10 -11 -31 -23 -48 -27 -16 -4 -38 -15 -48 -25 -10 -11
-31 -19 -47 -19 -16 0 -42 -11 -58 -25 -18 -15 -42 -25 -61 -25 -20 0 -34 -7
-41 -20 -7 -14 -21 -20 -45 -20 -21 0 -44 -9 -63 -25 -17 -14 -41 -25 -55 -25
-14 0 -32 -9 -40 -20 -8 -11 -31 -22 -55 -26 -22 -3 -49 -15 -58 -25 -10 -11
-31 -19 -50 -19 -21 0 -38 -7 -46 -19 -9 -12 -32 -22 -63 -27 -31 -4 -55 -14
-63 -25 -9 -13 -26 -19 -51 -19 -30 0 -42 -6 -55 -25 -11 -17 -26 -25 -45 -25
-15 0 -36 -9 -46 -20 -10 -11 -28 -20 -41 -20 -33 0 -54 -10 -54 -26 0 -8 -16
-16 -41 -20 -23 -4 -49 -15 -58 -25 -9 -11 -29 -19 -47 -19 -20 0 -44 -10 -62
-25 -20 -16 -42 -25 -65 -25 -27 0 -37 -5 -42 -20 -4 -13 -15 -20 -31 -20 -27
0 -60 -15 -82 -37 -7 -7 -29 -13 -49 -13 -25 0 -43 -7 -59 -25 -16 -18 -34
-25 -58 -25 -25 0 -38 -6 -46 -20 -8 -15 -21 -20 -54 -20 -33 0 -47 -6 -64
-25 -15 -17 -32 -25 -55 -25 -21 0 -41 -8 -52 -20 -10 -11 -31 -20 -46 -20
-16 0 -40 -11 -55 -25 -19 -18 -38 -25 -66 -25 -31 0 -41 -4 -45 -20 -4 -15
-14 -20 -42 -20 -27 0 -43 -7 -59 -25 -16 -19 -32 -25 -61 -25 -27 0 -44 -6
-53 -18 -7 -10 -31 -22 -53 -25 -24 -4 -46 -15 -54 -27 -7 -11 -24 -20 -38
-20 -14 0 -38 -10 -54 -22 -16 -13 -42 -33 -58 -46 -47 -36 -69 -94 -73 -197
-3 -90 -3 -90 27 -86 17 2 937 6 2045 7 1921 3 2015 4 2012 21 -26 141 -30
207 -17 349 4 55 3 84 -4 89 -6 3 -11 17 -11 29 0 13 -9 52 -21 87 -13 41 -18
76 -14 97 4 19 1 39 -5 47 -6 7 -15 42 -21 77 -5 34 -16 79 -23 98 -8 19 -20
71 -26 114 -5 44 -15 85 -21 92 -6 7 -16 64 -24 126 -7 62 -19 140 -26 173 -8
41 -12 185 -13 460 0 351 2 407 17 455 10 30 24 100 32 155 8 55 19 123 25
150 19 88 28 195 23 279 -5 69 -3 84 11 96 22 17 33 3 42 -53 5 -30 13 -40 39
-51 25 -11 34 -23 45 -60 10 -38 19 -50 46 -61 19 -8 34 -21 34 -30 0 -18 102
-125 119 -125 6 0 11 -7 11 -15 0 -8 18 -27 40 -41 22 -14 42 -34 45 -44 3 -9
21 -26 40 -36 26 -14 38 -29 45 -55 12 -42 23 -54 65 -63 56 -13 83 -30 97
-60 10 -25 21 -32 56 -38 54 -9 56 -11 76 -53 13 -26 23 -35 42 -35 22 0 46
-9 154 -59 14 -7 36 -18 50 -26 14 -8 45 -15 70 -15 62 0 87 -9 93 -31 6 -22
52 -42 79 -33 10 3 24 1 31 -4 7 -5 53 -12 102 -15 82 -6 92 -5 102 12 16 26
50 16 58 -17 6 -26 7 -26 20 -8 11 14 20 17 42 11 15 -5 54 -9 85 -11 32 -1
74 -8 93 -15 29 -11 38 -11 44 -1 4 7 12 12 17 11 26 -5 73 15 78 33 4 16 10
19 30 14 17 -4 35 0 51 10 31 20 41 14 24 -15 -17 -26 -5 -37 24 -24 42 21 56
22 87 6 30 -15 34 -14 83 11 55 28 135 49 150 39 6 -3 17 4 26 16 13 17 35 25
97 35 69 10 79 14 82 34 4 23 40 39 66 29 18 -7 30 24 21 53 -5 16 -12 19 -33
14 -15 -4 -29 -7 -32 -6 -36 0 -40 4 -40 32 0 17 -4 30 -10 30 -5 0 -10 -13
-10 -30 0 -16 5 -30 10 -30 18 0 11 -29 -12 -50 -15 -13 -25 -17 -32 -10 -23
23 -96 1 -96 -29 0 -6 -16 -11 -36 -11 -28 0 -37 -5 -41 -21 -4 -15 -11 -19
-26 -15 -11 3 -53 -2 -94 -10 -59 -12 -77 -13 -89 -3 -11 9 -18 9 -32 -4 -11
-10 -32 -14 -62 -12 -25 2 -84 6 -131 9 -81 6 -87 5 -92 -14 -4 -14 -13 -20
-35 -20 -42 0 -68 10 -51 21 10 6 10 10 0 22 -10 12 -10 20 1 36 9 15 10 23 1
32 -17 17 -52 -10 -55 -45 -3 -34 -25 -46 -35 -19 -4 10 -14 23 -22 30 -13 10
-14 15 -3 32 20 34 15 69 -10 73 -20 3 -23 8 -20 45 3 55 -27 77 -52 38 -15
-23 -15 -29 3 -82 13 -38 26 -60 40 -65 25 -9 28 -50 5 -69 -12 -10 -22 -10
-46 -1 -25 9 -36 8 -60 -4 -42 -22 -93 -2 -84 33 21 82 22 78 -7 49 -17 -17
-24 -32 -20 -46 7 -25 -37 -29 -58 -4 -10 12 -24 15 -57 10 -37 -5 -43 -3 -40
12 1 9 -1 23 -5 30 -6 9 1 12 27 12 41 0 45 9 16 35 -12 11 -18 26 -15 35 7
22 -4 50 -19 50 -13 0 -54 43 -73 76 -9 17 -9 24 0 34 9 9 8 11 -8 8 -29 -5
-33 -75 -6 -119 12 -19 21 -42 21 -51 0 -9 8 -21 18 -27 16 -9 16 -10 -1 -16
-13 -6 -15 -11 -7 -20 16 -20 -25 -41 -46 -24 -10 8 -11 15 -4 25 8 9 7 15 -3
21 -7 4 -16 16 -20 26 -9 24 -37 22 -37 -3 0 -23 -9 -25 -35 -7 -19 15 -13 37
11 37 16 0 20 56 5 79 -13 19 -26 8 -61 -54 -31 -54 -32 -54 -76 -53 -41 2
-58 18 -35 32 5 4 14 29 20 58 12 53 6 67 -27 68 -13 0 -16 -6 -26 -52 -8 -34
-37 -37 -51 -5 -8 17 -23 24 -70 32 -60 11 -60 11 -22 34 32 19 37 28 37 59 0
43 -5 51 -43 75 -27 17 -27 17 -62 -18 -20 -19 -42 -35 -50 -35 -14 0 -17 10
-19 65 -2 22 -32 33 -49 16 -22 -22 -42 -9 -66 39 -22 46 -68 92 -118 119 -33
17 -28 38 12 52 19 7 37 21 40 30 11 34 33 43 55 24 22 -20 25 -19 34 13 7 21
4 22 -39 22 -30 0 -58 -8 -83 -23 -50 -32 -66 -37 -83 -26 -12 8 -12 10 0 18
11 7 5 11 -22 16 -21 4 -37 13 -37 21 0 7 -11 21 -24 30 -47 30 -43 104 5 104
32 0 21 16 -23 33 -28 11 -45 14 -52 7 -19 -19 -36 -10 -50 25 -8 19 -19 35
-24 35 -9 0 -47 72 -67 125 -4 11 -7 41 -7 68 0 48 -19 66 -33 30 -6 -17 -7
-17 -21 1 -20 28 -17 59 6 74 11 7 20 21 20 31 0 10 7 24 15 31 17 14 11 30
-12 30 -24 0 -53 -39 -53 -72 0 -15 -4 -28 -8 -28 -15 0 -42 36 -42 56 -1 10
-7 30 -14 43 -7 13 -11 32 -8 43 2 10 0 24 -6 31 -5 6 -15 29 -21 49 -7 21
-17 38 -22 38 -5 0 -9 4 -9 10 0 6 9 6 26 -1 24 -9 31 -5 70 36 50 52 54 65
19 65 -15 0 -25 -6 -25 -14 0 -11 -65 -46 -85 -46 -14 0 -33 77 -34 141 0 40
-4 82 -7 92 -3 10 0 32 6 48 15 35 6 51 -14 24 -29 -41 -53 0 -48 84 0 8 -6
20 -15 26 -17 12 -43 78 -43 110 0 45 -45 202 -63 223 -21 22 -21 22 11 55 43
45 44 87 3 87 -40 0 -44 11 -27 72 8 29 16 80 17 112 3 56 1 60 -23 68 -33 11
-41 30 -26 66 13 32 11 99 -5 127 -9 17 -12 57 -17 197 0 9 -7 23 -15 32 -27
26 -34 134 -29 441 5 352 5 456 -2 467 -3 4 -5 63 -5 130 0 83 -4 125 -12 130
-19 12 -27 9 -27 -10 0 -20 -39 -62 -57 -62 -15 0 -43 73 -43 110 0 20 -5 30
-15 30 -22 0 -36 67 -29 138 6 59 5 64 -20 87 -30 28 -29 60 5 84 26 19 24 49
-3 53 -23 3 -23 6 -24 139 0 85 -5 148 -13 167 -14 34 -1 72 24 72 18 0 19 12
3 28 -9 9 -7 13 6 18 11 4 21 1 26 -7 5 -7 10 -11 12 -9 26 41 28 51 14 78
-11 20 -15 22 -16 9 0 -10 -8 -21 -17 -24 -10 -4 -23 -13 -29 -21 -9 -13 -12
-12 -18 3 -3 10 -2 23 4 30 6 7 11 47 12 89 1 70 3 76 22 76 18 1 19 2 5 10
-13 8 -15 20 -11 55 4 37 1 49 -14 60 -17 13 -17 16 -4 25 8 5 24 10 34 10 18
0 18 2 -4 25 -21 22 -24 37 -27 111 -1 49 2 95 8 106 6 11 11 45 10 74 0 29 4
56 9 59 13 8 13 78 0 91 -8 8 -6 24 4 55 21 62 29 116 19 122 -10 6 -10 453 0
464 4 4 17 2 27 -5 12 -7 20 -8 20 -2 0 5 -4 10 -10 10 -5 0 -10 6 -10 13 0 6
-14 20 -30 29 -25 14 -30 23 -30 57 0 59 21 143 41 166 23 25 15 65 -12 65
-24 0 -25 -4 12 69 21 42 30 72 27 92 -3 17 1 34 9 40 7 6 13 19 13 28 0 9 5
22 11 28 7 7 9 23 5 37 -5 22 -9 25 -26 16 -37 -20 -40 -2 -13 73 14 39 25 52
53 64 31 14 33 16 15 23 -11 5 -30 9 -42 9 -30 1 -33 41 -4 41 29 0 31 10 22
85 -7 61 -6 69 13 89 12 12 32 36 46 54 24 31 26 31 69 21 53 -12 79 3 47 27
-17 12 -18 14 -3 14 20 0 23 16 3 23 -8 3 -23 -3 -34 -14 -12 -10 -27 -19 -34
-19 -8 0 -7 4 4 10 13 8 14 15 5 39 -13 36 -3 68 17 52 11 -9 16 -9 21 0 4 6
2 15 -5 19 -8 5 -10 20 -5 48 4 28 2 47 -8 64 -8 13 -18 38 -22 56 -6 31 -8
32 -61 32 -30 0 -54 -4 -54 -10z m-118 -3871 c24 -23 53 -45 64 -50 13 -4 25
-20 29 -38 3 -16 13 -35 21 -42 8 -6 14 -22 14 -36 0 -13 6 -34 14 -46 20 -32
28 -129 15 -184 -8 -36 -7 -67 2 -120 12 -73 -2 -193 -23 -193 -4 0 -8 -7 -8
-15 0 -8 5 -15 11 -15 7 0 8 -11 3 -32 -22 -93 15 -408 47 -408 4 0 8 -30 8
-67 1 -149 16 -278 35 -307 13 -21 17 -40 13 -68 -3 -21 1 -64 8 -96 16 -64
10 -132 -11 -132 -29 0 -63 73 -78 170 -26 157 -41 224 -60 252 -10 15 -21 60
-26 111 -5 47 -16 99 -24 116 -9 16 -16 41 -16 55 0 13 -11 48 -25 78 -14 29
-25 61 -25 71 0 11 -6 33 -14 50 -8 18 -17 48 -20 68 -4 21 -13 42 -20 48 -15
13 -32 74 -39 139 -4 36 -2 42 14 42 15 0 20 -10 25 -50 4 -33 13 -55 26 -64
11 -8 21 -30 24 -52 11 -80 14 -87 29 -74 9 7 13 21 10 34 -3 11 -7 111 -9
221 -2 110 -7 217 -11 238 -7 34 -5 39 14 44 27 7 28 23 1 23 -13 0 -22 9 -26
25 -3 14 -11 25 -18 25 -6 0 -18 18 -27 39 -12 27 -22 39 -35 38 -13 -2 -22 8
-29 31 -7 24 -14 32 -26 29 -21 -6 -42 32 -42 73 0 29 27 70 45 70 6 0 21 9
35 20 37 29 58 25 105 -21z m-152 -200 c0 -20 -15 -26 -24 -10 -8 13 4 42 15
35 5 -3 9 -14 9 -25z m40 -48 c5 -11 10 -40 10 -65 0 -34 3 -44 14 -40 16 6
62 -76 48 -85 -5 -3 -15 -27 -23 -54 -13 -47 -13 -47 -33 -27 -12 12 -23 41
-27 72 -4 29 -12 81 -17 115 -14 87 1 133 28 84z m639 -4107 c41 -21 40 -62
-1 -82 -37 -17 -35 -32 3 -32 30 0 30 0 23 -82 -4 -46 -6 -130 -5 -188 1 -58
3 -146 4 -197 1 -50 5 -95 10 -99 4 -4 7 -17 7 -29 0 -13 7 -39 15 -60 9 -20
13 -45 10 -56 -4 -11 -1 -26 5 -34 10 -12 10 -22 0 -45 -13 -31 -8 -45 13 -45
6 0 16 -16 22 -35 5 -19 13 -39 16 -45 10 -18 3 -169 -9 -192 -8 -15 -9 -29
-2 -47 15 -40 30 -31 30 19 0 25 4 45 9 45 11 0 25 -142 16 -170 -5 -14 0 -26
16 -39 21 -17 22 -26 25 -170 1 -84 5 -156 8 -159 3 -3 6 4 6 16 0 12 5 22 10
22 18 0 11 -72 -10 -106 -12 -18 -16 -35 -11 -38 5 -3 12 2 16 12 7 16 8 15
15 -3 9 -26 -22 -55 -64 -56 -29 -2 -29 -2 7 -8 46 -7 45 -21 -3 -40 -38 -15
-33 -15 -205 -13 -66 1 -133 1 -149 0 -15 0 -32 5 -36 12 -7 11 -26 11 -99 2
-65 -8 -108 -8 -151 0 -40 7 -64 7 -73 0 -17 -14 -393 -16 -402 -2 -8 13 -112
13 -120 0 -7 -12 -228 -9 -237 3 -4 7 -16 6 -35 -2 -28 -11 -201 -10 -220 2
-16 10 -71 9 -243 -3 -161 -12 -695 -9 -707 4 -10 10 -153 7 -153 -3 0 -11
-308 -8 -333 3 -13 6 -16 5 -11 -8 5 -14 -7 -16 -101 -16 -94 0 -106 2 -95 15
11 13 4 15 -52 15 -37 0 -69 -5 -76 -12 -20 -20 -229 -19 -265 1 -27 15 -37
41 -16 41 8 0 8 4 0 14 -8 10 -9 16 -1 21 6 4 9 14 8 23 -2 13 7 18 37 22 40
5 40 5 5 13 -35 8 -35 8 24 38 33 16 67 36 76 44 9 8 24 15 33 15 10 0 25 9
34 20 10 11 29 20 44 20 15 0 32 7 39 15 10 12 16 13 26 4 17 -14 44 4 44 28
0 13 3 13 16 2 14 -11 18 -10 31 6 7 11 22 19 32 17 10 -2 21 4 24 13 4 8 15
15 25 15 26 0 79 27 85 44 3 7 18 16 34 19 93 19 117 27 125 41 5 9 22 16 38
16 16 0 46 11 66 25 21 14 51 25 70 25 41 0 72 12 103 39 13 12 32 21 43 21
10 0 18 6 18 14 0 21 42 28 62 9 17 -15 18 -15 18 4 0 27 23 45 45 37 12 -5
23 0 35 16 11 14 28 23 49 24 22 1 40 10 53 26 16 20 23 22 38 12 15 -9 19 -8
24 5 4 8 13 13 21 9 8 -3 21 1 29 9 8 8 26 15 40 15 16 0 26 6 26 15 0 8 8 15
18 15 19 0 117 48 161 79 16 12 33 21 38 21 5 0 26 9 48 20 22 11 45 20 52 20
8 0 25 7 38 16 13 9 29 13 34 10 5 -4 26 3 46 14 19 11 42 20 49 20 7 0 19 7
26 15 7 8 21 15 32 15 10 0 21 7 24 15 5 12 15 14 42 9 25 -5 33 -4 28 5 -13
20 6 36 20 17 16 -22 54 -5 54 24 0 25 101 73 183 87 16 3 31 11 33 18 3 7 15
10 28 8 13 -3 27 0 30 6 4 6 14 11 23 11 9 0 27 10 40 22 17 16 26 19 35 10
14 -14 48 2 48 22 0 25 25 37 53 27 21 -8 29 -7 39 8 7 10 25 21 40 24 15 4
29 16 33 27 6 19 20 27 115 66 25 10 57 26 71 36 15 9 38 22 53 28 14 5 31 21
38 35 6 14 23 28 37 32 14 3 40 18 57 32 16 15 48 38 70 51 21 13 41 28 42 32
2 4 10 8 17 8 8 0 18 6 22 13 12 18 60 47 79 47 9 0 14 6 11 13 -8 22 9 51 34
57 16 4 28 17 35 40 6 19 21 38 32 43 11 5 22 18 25 28 6 23 6 23 46 3z"/>
<path d="M3736 1985 c-21 -16 -15 -45 9 -45 10 0 15 10 15 30 0 34 1 34 -24
15z"/>
<path d="M3680 1831 c0 -27 17 -61 30 -61 18 0 10 47 -10 65 -19 18 -20 17
-20 -4z"/>
<path d="M3740 1199 c0 -24 23 -21 28 4 2 10 -3 17 -12 17 -10 0 -16 -9 -16
-21z"/>
<path d="M3823 964 c-9 -20 -9 -26 1 -30 8 -3 11 -15 8 -30 -3 -17 0 -24 11
-24 8 0 18 -6 20 -12 10 -24 7 71 -3 96 -12 33 -22 33 -37 0z"/>
<path d="M3586 441 c-17 -19 -18 -21 -2 -27 22 -9 36 6 27 29 -6 17 -8 17 -25
-2z"/>
<path d="M2277 374 c-9 -9 -9 -48 -1 -57 9 -9 34 4 34 17 0 18 -25 48 -33 40z"/>
<path d="M443 103 c15 -2 37 -2 50 0 12 2 0 4 -28 4 -27 0 -38 -2 -22 -4z"/>
<path d="M3383 103 c26 -2 67 -2 90 0 23 2 2 3 -48 3 -49 0 -68 -1 -42 -3z"/>
<path d="M3500 10219 c0 -18 2 -19 15 -9 8 7 15 16 15 21 0 5 -7 9 -15 9 -9 0
-15 -9 -15 -21z"/>
<path d="M3690 10221 c0 -11 5 -23 10 -26 6 -3 10 -2 10 4 0 5 3 16 6 25 4 11
1 16 -10 16 -9 0 -16 -8 -16 -19z"/>
<path d="M5030 10231 c0 -39 25 -52 46 -23 20 26 17 32 -16 32 -16 0 -30 -4
-30 -9z"/>
<path d="M5440 10228 c0 -8 14 -13 35 -13 19 0 37 6 40 13 3 8 -8 12 -35 12
-25 0 -40 -5 -40 -12z"/>
<path d="M6140 10226 c0 -43 99 -36 100 7 0 4 -22 7 -50 7 -37 0 -50 -4 -50
-14z"/>
<path d="M6360 10231 c0 -5 7 -14 15 -21 13 -10 15 -9 15 9 0 12 -6 21 -15 21
-8 0 -15 -4 -15 -9z"/>
<path d="M7276 10228 c4 -7 10 -28 14 -47 3 -22 13 -39 27 -46 33 -17 54 -37
64 -61 5 -15 18 -24 36 -26 20 -2 32 -12 42 -35 10 -24 22 -33 48 -38 27 -5
32 -9 23 -19 -13 -17 12 -30 27 -15 13 13 39 -47 34 -79 -3 -23 0 -24 37 -17
35 6 40 4 45 -16 5 -18 9 -20 21 -10 19 16 33 -23 16 -44 -13 -16 10 -33 28
-21 5 3 15 -6 22 -19 7 -14 19 -25 25 -25 7 0 31 -14 55 -31 37 -27 41 -33 26
-41 -16 -9 -16 -12 -2 -33 10 -16 14 -35 10 -54 -7 -36 5 -40 31 -11 25 27 45
9 45 -40 0 -44 17 -62 51 -53 22 6 23 5 9 -12 -14 -17 -13 -18 14 -11 20 5 34
2 47 -10 24 -22 36 -83 19 -94 -18 -11 -5 -39 25 -50 14 -5 25 -14 25 -19 0
-6 16 -43 35 -84 23 -48 35 -88 35 -116 0 -35 4 -43 25 -53 14 -6 25 -19 25
-28 0 -10 7 -23 15 -30 8 -7 15 -27 15 -44 0 -17 7 -39 15 -50 8 -11 12 -30 8
-47 -7 -35 3 -79 18 -79 7 0 9 11 6 30 -4 17 -2 30 3 30 12 0 13 -93 1 -105
-21 -23 -22 -52 -2 -58 14 -3 21 -17 26 -55 4 -28 13 -56 21 -63 13 -10 12
-14 -1 -29 -11 -12 -13 -20 -6 -25 6 -3 11 -17 11 -30 0 -13 5 -27 11 -31 7
-4 9 -23 5 -50 -3 -26 -2 -44 4 -44 14 0 13 -77 -1 -86 -12 -7 -4 -100 10
-119 16 -20 23 -73 26 -198 2 -77 7 -133 14 -140 18 -18 13 -55 -11 -68 -20
-11 -20 -13 -5 -24 11 -7 17 -26 17 -48 0 -20 5 -47 11 -60 8 -18 8 -39 0 -77
-7 -30 -8 -57 -3 -64 17 -21 20 -56 9 -86 -9 -23 -9 -35 1 -50 11 -18 9 -62
-5 -100 -9 -23 -9 -160 -1 -147 4 7 8 -2 8 -20 0 -17 -4 -35 -10 -38 -5 -3
-10 -23 -10 -43 0 -20 -7 -49 -14 -64 -9 -17 -11 -30 -5 -34 5 -3 7 -20 4 -37
-4 -18 -2 -58 3 -89 6 -41 5 -65 -4 -88 -10 -22 -11 -44 -4 -78 10 -53 0 -72
-36 -72 -19 0 -24 -5 -24 -25 0 -14 5 -25 10 -25 6 0 10 -7 10 -15 0 -21 41
-75 56 -75 15 0 44 44 44 68 0 33 13 33 47 0 24 -24 36 -29 44 -21 12 12 39 6
51 -10 3 -6 20 -10 36 -10 28 0 29 -2 19 -26 -6 -14 -17 -33 -24 -42 -7 -8
-13 -22 -13 -30 0 -17 -32 -55 -52 -61 -10 -4 -9 -10 3 -29 19 -28 22 -81 5
-91 -7 -5 -6 -8 4 -8 20 0 35 11 43 33 10 26 50 23 42 -3 -4 -11 -2 -20 4 -20
19 0 12 -26 -12 -49 -22 -19 -23 -26 -16 -73 5 -31 4 -58 -2 -70 -17 -31 -7
-92 15 -96 10 -2 23 3 28 12 5 9 14 14 19 10 14 -8 2 -101 -16 -127 -8 -12
-15 -31 -15 -44 0 -12 -5 -25 -11 -28 -6 -5 -8 -22 -4 -46 5 -27 3 -45 -6 -56
-8 -8 -12 -27 -11 -42 3 -34 -22 -114 -36 -119 -15 -5 -17 124 -2 133 6 3 10
31 10 60 0 45 4 56 21 65 11 7 18 18 15 25 -3 8 1 27 9 42 17 32 19 53 5 53
-5 0 -7 6 -4 14 4 10 -2 16 -18 18 -31 4 -70 127 -50 158 14 24 16 120 2 120
-5 0 -10 -7 -10 -15 0 -8 -4 -23 -9 -33 -26 -52 -28 -84 -16 -214 8 -86 9
-142 3 -158 -5 -14 -9 -92 -9 -175 -1 -90 -5 -155 -11 -162 -15 -18 7 -42 32
-36 24 6 24 0 6 -60 -8 -26 -12 -56 -9 -67 3 -11 0 -20 -6 -20 -6 0 -11 5 -11
10 0 6 -3 10 -7 10 -5 0 -8 -29 -8 -64 0 -35 -5 -70 -11 -77 -6 -8 -17 -41
-24 -75 -14 -61 -33 -96 -60 -107 -12 -4 -11 -6 3 -6 18 -1 23 -16 8 -26 -6
-3 -22 -30 -37 -60 -14 -30 -33 -55 -40 -55 -8 0 -14 -5 -14 -11 0 -18 -53
-62 -104 -86 -54 -27 -76 -29 -76 -8 0 8 -9 15 -20 15 -18 0 -25 -11 -21 -34
1 -4 -5 -19 -14 -33 -9 -14 -14 -31 -11 -39 7 -18 -13 -76 -31 -91 -10 -8 -13
-21 -9 -37 6 -24 -16 -162 -36 -226 -6 -19 -10 -62 -10 -96 1 -49 -3 -65 -18
-79 -11 -10 -20 -29 -20 -43 0 -21 -2 -23 -16 -11 -15 12 -16 10 -10 -27 7
-37 5 -41 -18 -52 -14 -6 -26 -17 -26 -24 -3 -111 -8 -141 -28 -168 -12 -16
-22 -37 -22 -47 0 -28 -39 -84 -61 -90 -15 -4 -19 -12 -15 -32 3 -14 8 -48 11
-74 6 -48 6 -49 -17 -42 -39 12 -42 11 -50 -30 -17 -84 -20 -122 -9 -129 15
-10 61 23 61 45 0 14 20 41 20 27 0 -2 5 -30 10 -63 8 -48 7 -63 -6 -83 -11
-16 -12 -27 -5 -36 7 -9 7 -16 -1 -24 -8 -8 -8 -15 1 -25 14 -18 3 -50 -15
-43 -8 3 -14 -1 -14 -8 0 -8 7 -16 15 -20 24 -9 19 -46 -6 -46 -17 0 -20 -4
-15 -24 4 -16 -1 -32 -12 -47 -21 -25 -42 -19 -42 12 0 10 -4 19 -10 19 -15 0
-12 -32 5 -54 9 -11 12 -31 9 -50 -10 -58 -12 -61 -34 -41 -25 23 -40 11 -40
-31 0 -19 -4 -42 -9 -52 -5 -9 -12 -25 -15 -34 -3 -10 -14 -18 -24 -18 -13 0
-22 -11 -28 -32 -6 -20 -23 -41 -41 -53 -18 -11 -35 -32 -38 -48 -4 -16 -18
-33 -35 -42 -16 -8 -31 -23 -35 -34 -3 -10 -14 -26 -25 -36 -17 -16 -21 -16
-42 -1 -34 24 -40 20 -33 -24 6 -36 5 -40 -14 -40 -16 0 -20 -6 -18 -22 2 -18
-4 -24 -25 -26 -16 -2 -28 -9 -28 -15 0 -23 -71 -87 -110 -98 -22 -7 -40 -18
-40 -24 0 -21 -41 -65 -60 -65 -9 0 -23 -6 -29 -14 -7 -8 -26 -18 -42 -21 -24
-6 -30 -11 -27 -30 3 -27 -36 -85 -57 -85 -8 0 -15 -5 -15 -10 0 -6 -11 -15
-24 -20 -13 -5 -27 -18 -31 -29 -8 -25 -31 -34 -54 -19 -29 18 -54 3 -47 -29
9 -35 -43 -90 -93 -99 -44 -8 -61 -21 -61 -45 0 -10 -26 -38 -59 -64 -33 -26
-62 -53 -65 -62 -4 -8 -13 -12 -24 -9 -13 5 -28 -7 -55 -43 -28 -37 -46 -51
-72 -55 -19 -4 -35 -13 -35 -20 0 -14 -61 -66 -77 -66 -4 0 -14 -9 -21 -20 -7
-12 -23 -20 -41 -20 -15 0 -40 -9 -54 -20 -14 -11 -30 -20 -36 -20 -6 0 -11
-7 -11 -15 0 -22 -32 -55 -53 -55 -15 0 -18 -5 -14 -20 4 -14 -1 -25 -14 -33
-10 -6 -19 -19 -19 -29 0 -25 -69 -65 -81 -47 -8 11 -13 10 -29 -10 -15 -17
-26 -22 -43 -17 -13 3 -32 0 -42 -8 -24 -17 -95 -9 -113 13 -8 10 -11 29 -7
54 6 30 4 37 -9 37 -12 0 -16 -10 -16 -35 0 -24 -5 -35 -14 -35 -24 0 -85 40
-91 60 -3 9 -19 20 -35 24 -18 3 -30 12 -30 21 0 8 -7 15 -15 15 -8 0 -15 8
-15 18 0 24 -19 42 -46 42 -13 0 -41 18 -67 44 -24 25 -60 51 -80 60 -21 8
-37 19 -37 25 0 5 -19 20 -42 34 -24 14 -76 57 -116 96 -41 39 -76 71 -79 71
-3 0 -75 70 -160 155 -85 85 -158 155 -163 155 -5 0 -12 9 -15 20 -4 11 -17
28 -31 36 -13 9 -24 20 -24 25 0 5 -29 39 -65 75 -36 36 -65 71 -65 78 0 7
-16 27 -35 46 -20 19 -33 40 -31 46 3 7 -4 21 -15 32 -10 12 -19 26 -19 31 0
6 -14 20 -30 33 -20 15 -30 30 -30 49 0 14 -7 32 -16 40 -9 8 -13 21 -10 35 4
16 1 26 -11 33 -18 9 -36 60 -48 134 -3 20 -10 37 -15 37 -5 0 -7 12 -4 28 4
20 0 33 -15 46 -12 11 -21 31 -21 48 0 21 -5 28 -20 28 -29 0 -36 -42 -15 -86
9 -20 15 -48 12 -63 -5 -25 20 -143 36 -168 5 -7 5 -18 2 -23 -3 -6 1 -13 10
-16 9 -4 13 -13 10 -24 -3 -10 4 -27 19 -42 13 -15 26 -38 30 -52 4 -15 22
-47 41 -72 19 -25 35 -52 35 -60 0 -7 16 -28 36 -46 20 -18 42 -44 49 -58 8
-14 43 -56 80 -95 36 -38 109 -117 163 -174 183 -196 268 -281 280 -281 7 0
12 -7 12 -15 0 -8 12 -22 28 -32 15 -9 43 -34 63 -55 19 -21 38 -38 41 -38 3
0 24 -17 46 -37 78 -73 101 -93 110 -93 4 0 30 -20 55 -45 26 -25 51 -45 57
-45 5 0 11 -8 14 -18 4 -10 21 -24 40 -30 19 -7 36 -19 39 -26 3 -7 28 -25 56
-40 28 -14 60 -35 71 -46 11 -11 31 -20 44 -20 14 0 32 -7 41 -16 25 -25 107
-53 130 -43 11 4 39 8 62 8 39 1 73 20 73 42 0 5 9 9 21 9 12 0 31 9 43 19 11
10 44 39 71 63 28 24 70 58 94 75 24 18 50 41 58 52 8 12 21 21 29 21 15 0 70
35 89 57 12 14 82 71 120 98 15 11 35 27 44 35 9 8 32 27 51 41 19 15 46 38
60 50 13 13 67 59 120 102 52 43 116 97 141 120 26 23 62 53 80 67 19 14 55
46 82 72 26 27 50 48 55 48 4 1 25 19 47 40 22 22 42 40 45 40 3 0 39 32 80
70 41 38 79 70 84 70 4 0 27 19 50 43 23 23 81 79 129 124 48 45 87 85 87 90
0 5 12 20 28 34 15 14 34 36 42 49 8 13 29 38 45 56 38 42 95 120 95 132 0 5
9 17 20 27 11 10 20 23 20 30 0 7 9 20 19 29 11 10 17 24 14 32 -3 8 -1 14 5
14 11 0 82 141 82 164 0 7 10 26 22 41 12 15 21 42 21 59 -1 85 -13 178 -28
210 -12 25 -14 43 -8 62 9 27 9 27 59 -22 65 -63 103 -122 115 -176 6 -23 16
-50 23 -58 8 -8 16 -32 20 -52 4 -21 14 -45 23 -54 9 -9 20 -39 24 -66 5 -28
15 -58 24 -68 20 -22 21 -222 1 -271 -8 -19 -17 -81 -21 -139 -4 -69 -13 -117
-24 -140 -15 -30 -29 -87 -37 -150 -1 -8 -11 -46 -23 -84 -11 -37 -21 -75 -21
-83 0 -8 -9 -26 -20 -40 -13 -16 -20 -41 -20 -67 0 -23 -8 -52 -17 -66 -9 -13
-20 -48 -24 -78 -4 -30 -14 -61 -22 -70 -9 -10 -18 -39 -22 -65 -4 -26 -13
-54 -20 -61 -7 -7 -16 -37 -20 -66 -4 -30 -15 -66 -24 -79 -9 -14 -33 -72 -53
-130 -66 -192 -80 -226 -95 -243 -8 -9 -17 -45 -20 -80 -3 -35 -14 -77 -24
-93 -10 -17 -21 -55 -25 -85 -3 -30 -12 -62 -19 -70 -7 -8 -18 -40 -26 -70 -7
-30 -16 -59 -20 -65 -4 -5 -12 -46 -19 -90 -6 -44 -18 -90 -26 -103 -8 -13
-17 -46 -20 -75 -3 -29 -17 -75 -30 -103 -31 -64 -25 -89 20 -78 17 4 1029 9
2249 11 2197 3 2217 3 2217 23 0 19 -6 19 -217 13 -120 -3 -229 -5 -243 -5
-14 1 -33 2 -42 2 -10 1 -20 5 -23 11 -9 13 -43 11 -47 -2 -3 -8 -54 -12 -160
-13 -124 -2 -155 1 -151 11 7 18 -27 16 -51 -2 -29 -22 -181 -21 -172 0 3 9 0
15 -9 15 -8 0 -15 -4 -15 -10 0 -13 -147 -13 -155 0 -8 14 -148 13 -162 -1 -8
-8 -13 -8 -17 0 -4 6 -19 11 -33 11 -21 0 -23 -3 -14 -14 13 -15 -23 -15 -170
-1 -53 5 -78 4 -83 -4 -11 -16 -29 -13 -22 4 8 21 -23 19 -46 -2 -20 -18 -11
-18 -182 14 -15 3 -31 1 -35 -4 -10 -17 -421 -22 -421 -6 0 7 -7 13 -15 13 -8
0 -15 -7 -15 -15 0 -22 -108 -22 -116 0 -4 9 -19 15 -36 15 -16 0 -36 -7 -44
-15 -23 -22 -314 -22 -314 0 0 19 -17 19 -37 0 -21 -22 -356 -20 -374 1 -7 8
-30 14 -56 14 -41 0 -44 -2 -32 -16 12 -15 10 -16 -19 -9 -39 8 -754 11 -768
3 -17 -11 -64 -6 -64 7 0 7 -8 16 -17 20 -17 6 -17 7 0 16 9 6 26 8 36 4 11
-3 22 -1 26 4 3 6 -9 14 -27 19 -32 8 -32 8 -11 29 17 17 19 23 7 27 -8 3 -14
15 -14 27 0 13 5 19 13 16 9 -3 18 20 31 82 9 47 24 99 32 115 13 25 13 31 -1
46 -8 9 -15 23 -15 30 0 9 4 8 13 -5 27 -36 39 -8 31 76 -6 69 -5 79 10 79 9
0 16 -8 16 -17 1 -16 2 -16 16 2 9 11 13 31 10 45 -2 14 4 61 15 105 11 44 20
88 20 97 0 10 4 18 9 18 4 0 11 19 15 43 10 55 32 97 52 97 13 0 14 7 9 41 -6
35 -1 54 31 120 20 44 43 79 50 79 9 0 11 8 7 24 -3 13 -1 27 5 30 6 4 11 21
11 37 0 17 5 40 12 52 6 12 17 60 24 106 7 46 17 87 23 90 5 4 13 26 17 49 4
26 12 42 20 42 13 0 19 25 15 57 -1 7 3 13 9 13 5 0 10 12 10 28 0 60 12 102
30 102 28 0 42 45 29 92 -11 42 6 132 23 122 5 -3 6 -9 3 -14 -6 -10 15 -60
26 -60 19 0 17 21 -6 63 -14 27 -20 49 -15 52 6 4 10 16 10 27 0 12 8 30 17
40 14 16 15 23 4 53 -7 19 -9 40 -5 46 4 6 11 50 15 97 5 47 13 90 18 96 6 6
6 39 2 76 -9 76 -5 99 14 74 11 -16 13 -16 22 1 10 16 11 15 17 -12 7 -28 108
-143 127 -143 5 0 9 -12 9 -26 0 -17 6 -28 20 -31 15 -4 18 -11 13 -37 -5 -30
-5 -30 10 -11 14 19 16 19 22 2 4 -9 4 -33 1 -51 -7 -35 9 -60 20 -33 9 24 40
8 81 -41 21 -25 49 -57 63 -73 14 -15 33 -39 43 -53 10 -14 28 -26 40 -26 21
-1 21 -1 4 -14 -20 -15 -8 -30 17 -20 10 4 26 -7 46 -30 18 -20 54 -50 81 -67
27 -18 51 -41 55 -51 3 -11 12 -17 19 -14 8 3 28 -8 46 -24 18 -15 39 -26 46
-23 7 3 13 -1 13 -9 0 -28 48 -58 93 -58 36 0 51 -7 102 -50 33 -27 66 -50 73
-50 6 0 12 -4 12 -8 0 -4 16 -8 35 -8 41 0 194 -73 195 -93 0 -8 6 -11 16 -7
9 4 24 0 33 -7 9 -8 36 -17 60 -21 23 -4 58 -18 76 -31 18 -14 39 -23 48 -20
8 4 18 1 22 -4 3 -6 10 -9 15 -6 4 3 19 1 32 -4 23 -9 23 -9 -1 -18 -22 -9
-20 -10 23 -16 62 -9 149 -38 159 -55 5 -7 12 -10 17 -7 10 6 62 -15 72 -30 4
-5 15 -10 25 -11 10 0 32 -1 48 -2 17 -1 42 -13 55 -25 14 -13 38 -27 53 -31
15 -3 27 -13 27 -21 0 -8 5 -15 10 -15 6 0 10 7 8 16 -5 27 17 27 50 -1 18
-15 42 -25 61 -25 24 0 34 -6 41 -25 7 -19 17 -25 41 -25 52 0 112 -21 144
-52 17 -15 41 -28 52 -28 12 0 25 -4 28 -10 3 -5 15 -10 26 -10 11 0 18 -4 15
-9 -3 -5 11 -12 31 -16 20 -4 54 -15 74 -26 21 -10 44 -16 52 -13 9 3 23 -7
37 -25 15 -23 29 -31 51 -31 16 0 29 -5 29 -10 0 -6 15 -8 40 -4 27 4 40 3 40
-5 0 -6 4 -11 10 -11 5 0 38 -13 72 -29 72 -34 179 -71 205 -71 16 -1 16 -2
-2 -16 -19 -15 -18 -16 22 -10 24 3 44 2 48 -4 3 -5 1 -10 -5 -10 -6 0 -8 -5
-5 -11 4 -6 13 -8 21 -5 8 3 14 1 14 -4 0 -6 9 -10 19 -10 10 0 21 -7 25 -15
3 -8 13 -15 22 -15 19 0 116 -52 162 -87 25 -19 41 -24 63 -19 22 4 29 2 29
-9 0 -8 4 -15 9 -15 5 0 16 -3 25 -6 14 -5 16 4 16 59 0 65 0 65 -45 71 -29 5
-49 14 -55 26 -6 11 -21 22 -35 26 -13 3 -31 14 -41 25 -9 10 -25 19 -34 19
-9 0 -31 11 -50 25 -19 14 -44 25 -57 25 -12 0 -28 9 -35 20 -9 14 -24 20 -49
20 -25 0 -42 7 -57 25 -16 19 -32 25 -60 25 -26 0 -45 7 -57 20 -11 12 -31 20
-50 20 -20 0 -42 9 -59 25 -20 19 -38 25 -70 25 -34 0 -47 5 -58 22 -11 16
-24 21 -52 20 -28 -1 -42 5 -58 23 -16 18 -32 25 -59 25 -27 0 -41 5 -49 19
-6 12 -26 22 -50 26 -24 4 -44 14 -50 26 -7 13 -21 19 -44 19 -22 0 -39 8 -54
25 -16 19 -32 25 -62 25 -29 0 -42 5 -50 20 -8 15 -21 20 -49 20 -27 0 -44 7
-61 25 -17 18 -34 25 -59 25 -25 0 -40 6 -49 20 -9 15 -23 20 -57 20 -36 0
-50 5 -67 25 -17 19 -31 25 -64 25 -32 0 -47 5 -58 21 -10 15 -25 21 -52 21
-26 0 -43 7 -59 24 -15 16 -33 24 -56 24 -19 0 -42 8 -55 21 -12 11 -41 23
-63 26 -26 4 -45 13 -52 24 -7 14 -21 19 -49 19 -27 0 -45 7 -59 21 -11 12
-37 23 -61 26 -25 4 -46 13 -53 24 -8 13 -24 19 -48 19 -28 0 -41 6 -53 24
-11 18 -24 24 -48 24 -22 -1 -36 5 -46 20 -9 14 -25 22 -42 22 -15 0 -39 11
-54 25 -15 14 -37 25 -49 25 -12 0 -28 9 -35 20 -7 11 -23 20 -37 20 -14 0
-35 11 -47 25 -12 14 -30 25 -41 25 -19 0 -61 28 -101 68 -13 12 -27 22 -32
22 -8 0 -32 20 -149 127 -31 29 -76 80 -110 127 -18 25 -53 66 -135 157 -14
15 -36 44 -50 64 -14 20 -33 46 -42 56 -10 10 -18 24 -18 29 0 6 -11 20 -25
32 -14 12 -25 29 -25 38 0 10 -10 29 -22 43 -51 59 -68 86 -68 107 0 13 -11
33 -25 46 -14 13 -25 32 -25 43 0 11 -9 25 -20 31 -11 6 -20 15 -20 20 0 5
-72 82 -160 170 -133 134 -160 166 -160 190 0 18 7 33 19 39 11 6 21 26 25 52
4 23 16 53 26 67 11 13 20 39 20 57 0 22 7 37 21 47 15 9 22 27 25 58 2 24 12
53 23 64 11 13 20 41 23 72 3 32 13 62 26 79 18 22 22 41 22 94 0 49 5 74 20
96 15 23 20 47 20 99 0 58 4 72 25 98 18 21 25 41 25 70 0 43 9 55 82 111 20
15 44 27 52 27 9 0 26 11 38 25 12 14 27 25 35 25 7 0 15 11 19 24 3 14 14 32
25 42 10 9 19 23 19 30 0 7 11 26 25 42 17 20 25 42 25 68 0 24 7 45 20 59 15
16 23 43 28 92 5 45 14 77 25 87 12 12 17 34 17 71 0 42 5 59 21 74 17 15 22
35 26 102 3 61 9 89 24 107 15 20 19 41 19 104 0 63 5 87 23 121 22 41 22 50
24 403 2 391 3 387 -56 463 -19 25 -48 28 -191 18 -25 -2 -25 -2 -26 168 0
110 4 184 12 210 30 99 34 155 33 538 0 425 -9 597 -30 624 -10 12 -15 67 -19
214 -4 169 -7 200 -22 211 -13 10 -17 36 -20 120 -4 85 -8 112 -22 127 -12 14
-20 45 -25 100 -5 56 -12 85 -23 93 -8 7 -18 32 -21 55 -3 23 -14 54 -26 69
-12 15 -21 41 -21 60 0 20 -8 40 -19 51 -11 10 -22 30 -26 45 -4 14 -15 34
-26 44 -10 9 -19 27 -19 40 0 13 -11 35 -25 50 -16 18 -25 39 -25 61 0 21 -7
39 -20 50 -15 13 -20 30 -20 63 0 59 -37 100 -92 100 -53 0 -88 37 -88 92 0
53 -20 84 -60 93 -17 4 -30 10 -30 15 0 16 -155 163 -257 245 -55 44 -108 92
-116 108 -9 15 -29 32 -44 39 -15 7 -36 20 -46 30 -10 10 -28 18 -42 18 -36 0
-55 10 -55 31 0 16 -7 19 -41 19 -29 0 -38 -3 -33 -12z m1466 -4325 c-10 -28
-10 -28 -11 12 -1 28 2 36 10 28 8 -8 8 -19 1 -40z"/>
<path d="M3977 10184 c-10 -11 -8 -104 2 -104 13 0 24 76 14 95 -5 8 -12 12
-16 9z"/>
<path d="M5957 10177 c-7 -18 2 -29 33 -45 14 -7 30 -23 35 -34 9 -19 39 -43
83 -64 6 -3 15 -24 18 -45 4 -21 10 -39 15 -39 5 0 9 -6 9 -14 0 -7 14 -16 30
-19 25 -5 30 -12 30 -34 1 -36 55 -102 71 -86 16 16 7 47 -19 58 -17 8 -22 18
-22 48 0 30 -5 40 -25 49 -23 10 -40 37 -64 101 -6 15 -17 27 -25 27 -9 0 -20
9 -26 20 -8 14 -21 20 -45 20 -29 0 -35 4 -35 21 0 36 -52 65 -63 36z"/>
<path d="M4474 10158 c3 -13 6 -26 6 -30 0 -11 68 -10 75 1 7 13 -43 51 -68
51 -15 0 -18 -5 -13 -22z"/>
<path d="M4080 10163 c-8 -2 -21 -7 -29 -9 -11 -4 -12 -7 -3 -16 9 -9 18 -8
37 2 37 20 34 36 -5 23z"/>
<path d="M6404 10155 c-7 -18 2 -45 14 -45 8 0 32 42 32 55 0 12 -41 3 -46
-10z"/>
<path d="M4276 10153 c-8 -9 14 -33 30 -33 8 0 14 4 14 10 0 12 -35 31 -44 23z"/>
<path d="M5567 10152 c-22 -5 -19 -35 4 -40 10 -2 19 6 22 18 6 23 0 28 -26
22z"/>
<path d="M7056 10144 c-3 -9 -3 -20 0 -25 8 -13 34 9 34 27 0 19 -26 18 -34
-2z"/>
<path d="M4790 10105 c-18 -21 -3 -32 16 -13 10 9 12 18 6 22 -5 3 -15 -1 -22
-9z"/>
<path d="M3520 10082 c0 -24 18 -38 31 -25 6 6 2 16 -11 28 -19 18 -20 18 -20
-3z"/>
<path d="M3756 10092 c-3 -5 3 -17 14 -27 17 -15 20 -16 20 -3 0 19 -26 42
-34 30z"/>
<path d="M4365 10070 c14 -68 45 -97 45 -42 0 18 -10 38 -26 53 -26 24 -26 24
-19 -11z"/>
<path d="M4556 10092 c-7 -12 22 -38 31 -28 4 3 0 14 -9 22 -9 10 -18 12 -22
6z"/>
<path d="M6463 10073 c-24 -9 -15 -63 12 -73 14 -5 25 -13 25 -18 0 -4 6 -16
13 -27 13 -17 15 -17 45 1 32 18 41 38 22 49 -5 3 -18 0 -29 -7 -26 -16 -49 3
-53 44 -3 32 -13 40 -35 31z"/>
<path d="M5104 10027 c-1 -43 -1 -43 23 -19 24 24 23 42 -2 42 -7 0 -15 4 -17
10 -1 5 -3 -9 -4 -33z"/>
<path d="M3560 10031 c0 -9 34 -21 62 -21 11 0 15 5 12 15 -7 16 -74 22 -74 6z"/>
<path d="M4155 10030 c-4 -6 -16 -8 -28 -4 -19 6 -20 5 -8 -10 7 -9 26 -16 42
-16 15 0 32 -6 36 -14 11 -20 63 -32 63 -15 0 39 -87 88 -105 59z"/>
<path d="M3640 10006 c-15 -19 -5 -36 21 -36 22 0 25 22 5 39 -10 9 -16 8 -26
-3z"/>
<path d="M4680 10005 c0 -8 7 -15 15 -15 8 0 15 7 15 15 0 8 -7 15 -15 15 -8
0 -15 -7 -15 -15z"/>
<path d="M3745 10001 c-6 -5 -19 -11 -30 -14 -11 -3 6 -5 38 -6 43 -1 58 2 55
12 -6 15 -50 21 -63 8z"/>
<path d="M4878 9983 c-2 -10 3 -25 10 -34 20 -24 72 2 65 31 -5 17 -8 18 -21
8 -12 -10 -16 -10 -19 0 -7 18 -31 15 -35 -5z"/>
<path d="M5240 9985 c0 -8 6 -15 14 -15 7 0 21 -11 30 -25 9 -14 25 -25 35
-25 10 0 26 -9 36 -20 10 -11 26 -20 36 -20 28 0 49 -11 49 -26 0 -12 54 -10
69 2 12 10 -13 34 -43 40 -20 3 -36 10 -36 15 0 5 -11 7 -25 3 -36 -9 -61 2
-45 21 17 21 4 35 -34 35 -19 0 -39 7 -46 15 -7 8 -19 15 -26 15 -8 0 -14 -7
-14 -15z"/>
<path d="M5560 9977 c0 -8 7 -18 16 -21 11 -4 14 -1 12 11 -4 21 -28 30 -28
10z"/>
<path d="M4254 9929 c-5 -9 35 -39 53 -39 14 0 17 19 5 35 -8 12 -51 15 -58 4z"/>
<path d="M3877 9914 c-9 -10 2 -24 19 -24 8 0 14 7 14 15 0 15 -21 21 -33 9z"/>
<path d="M6075 9909 c-10 -15 1 -23 20 -15 9 3 13 10 10 16 -8 13 -22 13 -30
-1z"/>
<path d="M3710 9903 c1 -26 17 -32 35 -13 18 20 18 20 -8 20 -15 0 -27 -3 -27
-7z"/>
<path d="M5173 9884 c-9 -23 11 -50 33 -46 26 5 27 8 20 37 -7 29 -43 35 -53
9z"/>
<path d="M3442 9800 c-15 -24 -16 -40 -1 -40 18 0 41 30 35 45 -7 20 -19 19
-34 -5z"/>
<path d="M3785 9810 c-12 -20 7 -31 41 -24 22 4 34 2 34 -5 0 -13 27 -15 35
-2 7 12 -51 41 -81 41 -13 0 -26 -4 -29 -10z"/>
<path d="M4050 9790 c0 -25 4 -30 25 -30 13 0 35 -5 49 -11 20 -9 29 -9 41 1
20 17 10 30 -25 30 -19 0 -33 7 -40 20 -17 32 -50 26 -50 -10z"/>
<path d="M4940 9811 c0 -17 19 -22 57 -15 31 6 34 8 18 15 -28 11 -75 11 -75
0z"/>
<path d="M4416 9773 c-14 -14 -4 -23 25 -23 19 0 29 4 27 12 -5 13 -42 21 -52
11z"/>
<path d="M3578 9736 c-8 -38 5 -52 36 -38 21 9 24 15 17 34 -12 33 -47 36 -53
4z"/>
<path d="M5104 9736 c-17 -13 -18 -15 -2 -21 26 -10 52 -2 56 18 4 21 -26 23
-54 3z"/>
<path d="M5317 9739 c8 -8 19 -8 40 -1 28 10 28 10 -11 11 -29 1 -37 -2 -29
-10z"/>
<path d="M6494 9734 c3 -9 6 -18 6 -20 0 -2 5 -4 10 -4 6 0 10 9 10 20 0 12
-7 20 -16 20 -11 0 -14 -5 -10 -16z"/>
<path d="M4473 9715 c-7 -21 -2 -25 43 -35 49 -11 53 -6 24 25 -26 28 -58 33
-67 10z"/>
<path d="M4196 9711 c-7 -11 33 -47 62 -56 12 -3 30 -17 38 -31 24 -36 94 -31
94 7 0 13 -8 20 -22 21 -13 0 -28 2 -34 2 -6 1 -24 16 -39 34 -26 32 -85 46
-99 23z"/>
<path d="M4777 9693 c-12 -12 -7 -33 8 -33 17 0 19 9 7 28 -5 7 -11 9 -15 5z"/>
<path d="M5168 9658 c-7 -4 -28 -13 -45 -20 -46 -18 -41 -35 9 -35 27 0 49 6
62 18 11 11 27 19 36 19 9 0 25 6 35 14 18 13 15 14 -32 13 -28 -1 -57 -5 -65
-9z"/>
<path d="M5375 9658 c-22 -6 -46 -12 -52 -14 -25 -7 -12 -30 23 -43 33 -12 37
-11 60 14 13 14 24 33 24 41 0 16 1 15 -55 2z"/>
<path d="M5643 9625 c15 -32 27 -32 27 0 0 18 -5 25 -19 25 -17 0 -18 -3 -8
-25z"/>
<path d="M3653 9627 c-11 -17 13 -28 40 -18 15 6 27 12 27 15 0 9 -61 12 -67
3z"/>
<path d="M3775 9629 c-10 -15 1 -23 20 -15 9 3 13 10 10 16 -8 13 -22 13 -30
-1z"/>
<path d="M5445 9629 c-4 -6 2 -17 14 -26 14 -9 21 -23 19 -40 -4 -35 25 -54
49 -31 15 16 15 18 0 24 -9 3 -17 15 -17 25 0 20 -33 59 -49 59 -6 0 -13 -5
-16 -11z"/>
<path d="M4604 9615 c-4 -8 -1 -22 6 -30 11 -13 14 -13 25 2 10 13 10 22 3 30
-14 17 -27 16 -34 -2z"/>
<path d="M4854 9606 c-10 -22 -9 -24 20 -29 32 -5 51 2 29 10 -7 3 -13 13 -13
24 0 27 -23 24 -36 -5z"/>
<path d="M4480 9602 c0 -7 -15 -12 -36 -12 -32 0 -35 -2 -28 -22 10 -33 10
-33 46 0 18 17 29 34 25 38 -4 4 -7 2 -7 -4z"/>
<path d="M4953 9585 c-3 -9 -3 -19 1 -22 8 -9 37 18 30 28 -8 14 -24 11 -31
-6z"/>
<path d="M3930 9531 c0 -9 52 -22 60 -15 7 7 -23 24 -42 24 -10 0 -18 -4 -18
-9z"/>
<path d="M5570 9496 c0 -18 26 -27 56 -20 20 5 22 9 13 20 -15 19 -69 18 -69
0z"/>
<path d="M4075 9491 c-3 -5 -1 -12 4 -16 13 -8 61 5 61 16 0 12 -57 12 -65 0z"/>
<path d="M3510 9481 c0 -12 8 -16 43 -25 23 -5 27 -3 27 14 0 16 -7 20 -35 20
-19 0 -35 -4 -35 -9z"/>
<path d="M7650 9413 c0 -10 5 -25 10 -33 7 -11 10 -7 10 18 0 17 -4 32 -10 32
-5 0 -10 -8 -10 -17z"/>
<path d="M4812 9408 c-16 -16 -15 -38 2 -38 17 0 30 30 18 42 -4 4 -13 3 -20
-4z"/>
<path d="M5180 9395 c0 -27 10 -29 65 -15 17 4 23 8 14 9 -9 0 -22 8 -29 16
-21 25 -50 19 -50 -10z"/>
<path d="M3495 9400 c-3 -5 -16 -10 -28 -10 -15 0 -18 -3 -10 -11 14 -14 53
-2 53 17 0 16 -6 18 -15 4z"/>
<path d="M3830 9395 c-7 -8 -23 -15 -35 -15 -32 0 -51 -25 -35 -45 17 -20 19
-20 95 15 36 17 70 30 75 30 6 0 10 7 10 15 0 11 -12 15 -49 15 -31 0 -53 -5
-61 -15z"/>
<path d="M5346 9344 c-8 -20 3 -64 16 -64 10 0 63 51 56 54 -2 0 -13 7 -25 14
-30 16 -40 15 -47 -4z"/>
<path d="M3590 9290 c-8 -5 -23 -11 -32 -14 -26 -8 -22 -26 5 -26 41 0 68 12
65 28 -4 19 -18 24 -38 12z"/>
<path d="M5437 9294 c-14 -15 -6 -34 14 -34 14 0 19 5 17 17 -3 18 -20 27 -31
17z"/>
<path d="M3810 9239 c-23 -9 -23 -11 -7 -20 24 -14 62 -7 62 11 0 18 -22 22
-55 9z"/>
<path d="M4886 9212 c-9 -15 10 -24 33 -17 10 3 24 -1 31 -10 14 -17 30 -20
30 -5 0 6 -6 10 -14 10 -8 0 -16 4 -18 9 -5 14 -55 24 -62 13z"/>
<path d="M3703 9183 c-33 -22 -28 -33 12 -33 28 0 35 4 35 19 0 26 -20 32 -47
14z"/>
<path d="M5917 9184 c-14 -15 -6 -34 14 -34 14 0 19 5 17 17 -3 18 -20 27 -31
17z"/>
<path d="M4123 9145 c0 -25 20 -34 32 -15 7 11 -12 40 -25 40 -4 0 -7 -11 -7
-25z"/>
<path d="M3300 9132 c0 -18 19 -24 37 -13 10 6 13 11 6 11 -6 0 -18 3 -27 6
-9 3 -16 1 -16 -4z"/>
<path d="M4310 9131 c0 -6 5 -13 11 -16 15 -10 61 4 54 15 -8 13 -65 13 -65 1z"/>
<path d="M3684 9085 c-10 -8 -36 -19 -57 -25 -21 -6 -47 -20 -58 -31 -35 -35
-77 -44 -100 -24 -22 21 -38 12 -23 -12 11 -18 -4 -83 -20 -83 -5 0 -17 -7
-26 -15 -9 -8 -32 -16 -51 -18 -41 -3 -51 -33 -19 -62 20 -18 20 -18 20 3 0
23 15 38 24 23 9 -14 80 15 92 38 14 27 43 55 66 63 9 4 18 17 20 30 2 17 11
24 38 29 52 9 82 24 109 53 29 31 17 56 -15 31z"/>
<path d="M3886 9091 c-12 -18 21 -33 45 -21 17 10 19 14 8 21 -18 11 -46 11
-53 0z"/>
<path d="M4227 9094 c-14 -14 -6 -24 19 -24 16 0 24 5 22 13 -5 14 -31 21 -41
11z"/>
<path d="M4720 9089 c0 -8 -15 -10 -46 -5 -43 5 -45 5 -42 -17 2 -16 9 -21 23
-19 11 1 37 3 57 4 36 1 55 19 42 39 -8 13 -34 11 -34 -2z"/>
<path d="M5700 9090 c0 -5 -7 -10 -15 -10 -8 0 -15 -4 -15 -10 0 -5 16 -10 35
-10 37 0 43 8 23 28 -15 15 -28 16 -28 2z"/>
<path d="M6517 9043 c-26 -7 -15 -27 16 -31 15 -2 27 -1 27 2 0 12 -13 36 -19
35 -3 -1 -14 -3 -24 -6z"/>
<path d="M6687 9044 c-16 -16 -6 -34 19 -34 19 0 25 5 22 17 -3 19 -29 29 -41
17z"/>
<path d="M6975 9040 c3 -5 17 -10 31 -10 13 0 24 5 24 10 0 6 -14 10 -31 10
-17 0 -28 -4 -24 -10z"/>
<path d="M3782 9010 c-12 -11 -33 -20 -48 -20 -40 0 -19 -14 22 -16 28 -1 39
5 55 28 25 34 5 39 -29 8z"/>
<path d="M4525 9020 c-4 -6 -14 -10 -23 -9 -36 3 -52 -2 -52 -15 0 -21 21 -25
50 -10 14 7 33 15 43 18 9 3 17 10 17 16 0 13 -27 13 -35 0z"/>
<path d="M3330 8967 c0 -21 12 -28 27 -16 19 16 16 29 -7 29 -11 0 -20 -6 -20
-13z"/>
<path d="M3872 8958 c-17 -17 -15 -35 6 -47 14 -9 14 -12 3 -20 -7 -4 -9 -11
-4 -14 15 -10 30 6 36 40 7 37 -19 63 -41 41z"/>
<path d="M6004 8946 c-7 -29 1 -46 21 -46 9 0 13 11 12 35 -2 40 -24 47 -33
11z"/>
<path d="M4366 8938 c4 -15 -1 -18 -30 -18 -29 0 -36 -4 -36 -20 0 -12 -7 -20
-17 -21 -10 -1 -22 -2 -28 -4 -5 -1 -20 -3 -32 -3 -31 -3 -30 -36 1 -50 30
-13 83 4 91 30 3 9 20 20 38 23 59 12 66 16 81 45 17 35 11 41 -38 38 -29 -3
-35 -6 -30 -20z"/>
<path d="M7106 8951 c-18 -7 -18 -8 -2 -14 30 -12 78 -8 74 6 -5 14 -45 19
-72 8z"/>
<path d="M6785 8914 c-5 -27 -2 -41 11 -55 20 -22 44 -25 44 -5 0 8 7 16 15
20 8 3 15 12 15 21 0 8 -7 15 -15 15 -8 0 -15 9 -15 20 0 14 -7 20 -24 20 -19
0 -25 -7 -31 -36z"/>
<path d="M4072 8856 c-14 -24 -29 -35 -49 -38 -40 -4 -43 -39 -6 -55 46 -20
83 -26 83 -15 0 6 -4 14 -10 17 -5 3 -10 17 -10 30 0 18 7 25 33 30 41 9 50
25 30 47 -24 27 -49 22 -71 -16z"/>
<path d="M5425 8870 c-4 -6 -5 -12 -4 -13 2 -1 14 -7 25 -14 19 -10 23 -9 27
8 3 10 1 19 -3 19 -5 0 -15 3 -23 6 -8 3 -18 0 -22 -6z"/>
<path d="M3801 8855 c-1 -17 -134 -113 -166 -120 -49 -11 -75 -27 -75 -48 0
-11 -11 -29 -24 -41 -32 -27 -45 -76 -21 -76 9 0 22 13 28 29 6 16 20 32 31
35 15 4 17 8 8 19 -16 19 0 32 51 41 21 4 41 14 44 22 5 15 63 20 63 6 0 -5
-26 -35 -59 -68 -32 -32 -65 -72 -74 -89 -8 -16 -26 -41 -40 -54 -20 -18 -27
-37 -33 -88 -3 -35 -13 -71 -22 -79 -11 -11 -12 -18 -4 -26 15 -15 -16 -68
-39 -68 -9 0 -20 -7 -23 -16 -9 -24 4 -82 19 -86 9 -2 4 -13 -15 -32 -29 -29
-29 -29 -40 0 -6 15 -8 39 -5 52 6 24 -11 56 -25 47 -4 -2 -3 -29 2 -60 8 -45
7 -60 -6 -80 -9 -13 -13 -31 -10 -39 4 -11 0 -16 -13 -16 -17 0 -19 -6 -17
-42 3 -56 20 -98 39 -98 21 0 19 13 -5 35 -28 25 -24 80 5 80 11 0 24 10 30
23 12 28 30 28 49 1 13 -20 15 -18 23 32 9 56 29 77 35 34 6 -48 23 -26 28 37
3 42 12 73 26 93 27 38 42 153 22 167 -9 7 -8 8 6 4 15 -5 17 -2 13 14 -6 22
30 70 52 70 6 0 11 11 11 25 0 14 9 30 20 37 11 7 20 18 20 25 0 6 11 24 24
40 30 36 52 101 38 115 -6 6 -6 21 1 44 10 32 13 34 39 28 26 -5 28 -4 20 13
-6 10 -15 29 -20 43 -6 14 -11 20 -11 15z"/>
<path d="M3833 8845 c-3 -9 -3 -19 1 -22 7 -7 36 16 36 28 0 15 -30 10 -37 -6z"/>
<path d="M4775 8849 c-4 -6 -4 -13 -1 -16 3 -3 1 -12 -5 -19 -14 -17 28 -41
44 -25 13 13 57 15 57 2 0 -5 -11 -19 -25 -32 -43 -40 -50 -59 -21 -59 18 0
25 6 28 23 2 18 9 22 36 21 54 -3 35 57 -23 72 -16 4 -38 16 -49 26 -23 21
-32 22 -41 7z"/>
<path d="M4960 8851 c0 -9 60 -19 79 -13 6 2 9 8 5 13 -7 12 -84 12 -84 0z"/>
<path d="M5160 8854 c0 -4 8 -13 18 -20 13 -11 14 -15 4 -22 -15 -10 -6 -42
12 -42 7 0 22 -11 34 -25 28 -32 42 -32 42 0 0 16 -16 40 -45 70 -42 41 -65
55 -65 39z"/>
<path d="M6181 8818 c-6 -7 -29 -13 -49 -13 -30 0 -38 -4 -40 -21 -4 -26 13
-39 58 -49 35 -7 35 -7 16 14 -11 11 -16 22 -13 22 37 7 57 21 57 40 0 22 -11
24 -29 7z"/>
<path d="M5317 8813 c-14 -14 -6 -23 21 -23 15 0 41 -4 59 -9 27 -8 32 -6 36
10 4 16 1 19 -13 14 -10 -3 -21 -1 -25 5 -7 11 -68 14 -78 3z"/>
<path d="M6000 8805 c-7 -8 -22 -15 -34 -16 -20 0 -20 -1 2 -10 26 -10 87 15
77 31 -9 15 -31 12 -45 -5z"/>
<path d="M4420 8801 c0 -19 30 -35 43 -22 9 9 9 14 -3 21 -19 12 -40 13 -40 1z"/>
<path d="M4211 8789 c-14 -5 -36 -8 -50 -6 -14 2 -20 2 -13 0 24 -9 14 -43
-14 -43 -19 0 -25 -5 -22 -17 5 -26 38 -29 45 -4 6 24 40 38 56 22 32 -32 82
6 52 39 -20 22 -21 22 -54 9z"/>
<path d="M4640 8786 c0 -53 50 -77 106 -50 48 23 50 31 12 47 -39 17 -75 20
-84 6 -4 -6 -11 -6 -20 2 -11 9 -14 8 -14 -5z"/>
<path d="M4935 8789 c-8 -11 25 -40 37 -33 14 9 9 23 -11 34 -14 7 -22 7 -26
-1z"/>
<path d="M6323 8775 c-8 -22 -1 -26 49 -31 88 -8 95 -6 84 23 -6 14 -9 15 -16
4 -7 -12 -15 -11 -49 3 -51 20 -60 20 -68 1z"/>
<path d="M3933 8773 c-41 -5 -42 -18 -3 -32 24 -8 30 -16 30 -40 0 -34 18 -51
31 -30 20 32 4 115 -20 107 -4 0 -21 -3 -38 -5z"/>
<path d="M5555 8760 c-3 -5 -4 -10 -1 -10 2 0 11 -3 20 -6 11 -4 16 -1 16 10
0 18 -25 22 -35 6z"/>
<path d="M3817 8734 c-31 -17 -34 -29 -11 -38 25 -10 54 3 54 24 0 27 -11 30
-43 14z"/>
<path d="M4589 8737 c-14 -7 -32 -17 -40 -23 -8 -6 -25 -15 -39 -19 -14 -4
-36 -18 -49 -31 -17 -18 -35 -24 -66 -24 -26 0 -48 -6 -55 -15 -7 -8 -22 -15
-34 -15 -13 0 -33 -11 -46 -25 -24 -25 -50 -33 -50 -15 0 33 -103 -13 -130
-58 -11 -18 -20 -35 -20 -37 0 -14 47 -2 66 16 17 16 37 22 78 23 31 1 61 7
68 14 7 7 21 12 33 12 11 0 40 14 64 30 26 18 57 30 76 30 21 0 51 13 84 35
28 19 55 35 60 35 4 0 14 7 21 15 7 8 21 15 31 15 18 0 19 1 3 25 -18 28 -19
28 -55 12z"/>
<path d="M5946 8725 c-32 -30 -30 -46 7 -59 33 -12 37 -8 42 43 5 49 -9 53
-49 16z"/>
<path d="M3465 8727 c-31 -19 -45 -35 -45 -51 0 -8 -4 -17 -9 -20 -4 -3 -11
-28 -15 -56 -4 -31 -11 -49 -19 -47 -7 1 -13 -14 -15 -40 -2 -24 1 -43 6 -43
16 0 34 28 27 40 -4 7 5 25 20 40 21 22 28 40 30 75 1 34 8 52 28 73 39 40 35
55 -8 29z"/>
<path d="M4393 8733 c-7 -2 -13 -9 -13 -15 0 -12 41 -6 41 7 1 12 -11 15 -28
8z"/>
<path d="M5136 8685 c-9 -14 -14 -30 -11 -35 10 -16 -11 -20 -42 -8 -39 15
-93 -5 -93 -33 0 -11 -7 -19 -16 -19 -9 0 -18 -9 -21 -21 -3 -12 -11 -18 -19
-15 -8 3 -14 1 -14 -5 0 -5 -15 -16 -33 -24 -19 -8 -39 -21 -46 -29 -7 -8 -19
-12 -27 -9 -8 3 -14 -1 -14 -11 0 -9 -10 -20 -23 -25 -29 -11 -51 -37 -42 -51
3 -5 24 -10 45 -10 31 0 38 -3 34 -15 -4 -8 -2 -15 3 -15 17 0 43 35 43 57 0
12 8 23 20 26 13 3 20 14 20 29 0 29 17 48 36 41 8 -3 17 2 20 11 3 9 12 16
19 16 7 0 15 7 19 15 3 8 11 15 17 15 6 0 22 12 35 26 15 15 31 23 42 20 62
-18 67 -18 80 13 26 59 0 105 -32 56z"/>
<path d="M4057 8673 c-11 -3 -16 -11 -13 -18 3 -9 -3 -15 -17 -17 -27 -4 -35
-36 -12 -45 12 -4 27 5 51 33 45 53 44 61 -9 47z"/>
<path d="M5853 8665 c-9 -24 4 -30 32 -15 19 10 22 16 13 22 -20 12 -38 9 -45
-7z"/>
<path d="M5535 8650 c-10 -12 -25 -18 -33 -15 -19 7 -92 -69 -91 -93 1 -25 17
-69 18 -52 1 8 17 28 36 44 19 16 35 35 35 42 0 7 15 15 33 19 61 12 67 16 67
40 0 13 6 26 13 28 6 3 -4 6 -24 6 -24 1 -42 -6 -54 -19z"/>
<path d="M6292 8634 c1 -9 9 -19 16 -22 9 -3 13 2 10 14 -1 9 -9 19 -16 22 -9
3 -13 -2 -10 -14z"/>
<path d="M7884 8617 c-13 -36 0 -72 29 -75 19 -2 27 1 27 12 0 9 -5 16 -10 16
-6 0 -9 12 -8 27 3 30 -28 46 -38 20z"/>
<path d="M6307 8594 c-11 -11 3 -24 24 -24 12 0 19 5 17 13 -5 14 -31 21 -41
11z"/>
<path d="M5273 8562 c-47 -15 -66 -42 -29 -42 12 0 26 3 30 7 4 4 19 7 34 8
20 0 28 6 30 21 3 24 -7 25 -65 6z"/>
<path d="M7642 8543 c5 -25 28 -28 28 -4 0 12 -6 21 -16 21 -9 0 -14 -7 -12
-17z"/>
<path d="M6172 8534 c4 -20 34 -41 44 -31 8 8 -24 47 -38 47 -5 0 -8 -7 -6
-16z"/>
<path d="M3897 8513 c-28 -20 -37 -33 -37 -55 0 -18 -6 -31 -17 -35 -25 -9
-33 -23 -33 -61 0 -36 21 -52 45 -32 8 7 15 24 15 38 0 17 15 40 50 72 51 48
59 67 38 88 -16 16 -18 16 -61 -15z"/>
<path d="M5578 8479 c-19 -11 -24 -29 -8 -29 6 0 19 9 30 20 21 21 8 27 -22 9z"/>
<path d="M3341 8453 c-1 -12 -5 -25 -11 -28 -13 -8 -13 -42 1 -51 20 -12 29
11 20 56 -5 25 -9 35 -10 23z"/>
<path d="M4955 8460 c-4 -6 -15 -8 -26 -5 -21 7 -25 -7 -6 -23 15 -13 79 -1
85 16 2 6 -1 12 -6 12 -6 0 -17 3 -25 6 -8 3 -18 0 -22 -6z"/>
<path d="M5135 8450 c-8 -12 20 -24 35 -15 6 3 8 11 5 16 -8 12 -32 12 -40 -1z"/>
<path d="M3433 8389 c-16 -16 -17 -69 -3 -69 15 0 22 23 18 55 -2 21 -5 24
-15 14z"/>
<path d="M4622 8359 c-26 -10 -28 -25 -4 -37 28 -15 50 -1 37 24 -8 17 -15 19
-33 13z"/>
<path d="M4403 8323 c9 -2 17 -11 17 -19 0 -8 10 -14 25 -14 14 0 25 4 25 8 0
8 -60 33 -76 31 -5 -1 -1 -3 9 -6z"/>
<path d="M4602 8273 c2 -10 10 -18 18 -18 8 0 16 8 18 18 2 12 -3 17 -18 17
-15 0 -20 -5 -18 -17z"/>
<path d="M5200 8239 c0 -12 5 -19 12 -17 18 6 20 25 3 31 -10 5 -15 0 -15 -14z"/>
<path d="M7657 8253 c-12 -12 -7 -53 6 -53 9 0 12 10 9 30 -5 32 -5 33 -15 23z"/>
<path d="M4513 8235 c-3 -9 -3 -18 0 -21 9 -9 27 6 27 22 0 19 -19 18 -27 -1z"/>
<path d="M6550 8235 c0 -8 7 -15 15 -15 8 0 15 7 15 15 0 8 -7 15 -15 15 -8 0
-15 -7 -15 -15z"/>
<path d="M3330 8156 c0 -19 5 -38 10 -41 6 -4 10 10 10 34 0 23 -4 41 -10 41
-5 0 -10 -15 -10 -34z"/>
<path d="M6924 8150 c1 -38 9 -50 20 -31 8 12 -4 71 -14 71 -4 0 -7 -18 -6
-40z"/>
<path d="M4375 8169 c-11 -16 1 -22 30 -15 14 4 23 11 20 16 -8 13 -42 13 -50
-1z"/>
<path d="M4794 8145 c-9 -23 14 -45 26 -25 5 8 8 19 7 24 -6 17 -27 18 -33 1z"/>
<path d="M8056 8119 c-4 -26 -2 -46 5 -55 16 -20 29 -17 29 5 0 10 7 22 16 25
8 3 12 11 8 17 -5 8 -10 6 -16 -5 -13 -23 -29 -10 -22 19 3 12 1 25 -4 29 -5
3 -12 -13 -16 -35z"/>
<path d="M5802 8084 c4 -22 45 -31 61 -15 14 14 8 19 -32 27 -29 6 -33 4 -29
-12z"/>
<path d="M3573 8008 c-23 -36 -34 -56 -45 -80 -7 -16 -20 -28 -30 -28 -22 0
-27 -9 -35 -66 -7 -57 15 -59 30 -3 10 39 34 69 55 69 12 0 12 3 2 15 -10 12
-9 18 8 32 12 10 24 30 28 46 7 28 1 35 -13 15z"/>
<path d="M4585 7980 c28 -12 45 -12 45 0 0 6 -15 10 -32 9 -28 0 -30 -2 -13
-9z"/>
<path d="M7660 7967 c0 -28 22 -41 39 -24 13 13 15 37 2 37 -5 0 -16 3 -25 6
-12 5 -16 0 -16 -19z"/>
<path d="M3326 7877 c6 -26 4 -28 -17 -25 -22 3 -24 -1 -27 -44 -2 -37 0 -48
11 -48 16 0 27 21 27 51 0 11 7 22 15 25 19 8 19 25 0 50 -15 18 -15 17 -9 -9z"/>
<path d="M4070 7796 c0 -19 5 -38 10 -41 6 -4 10 10 10 34 0 23 -4 41 -10 41
-5 0 -10 -15 -10 -34z"/>
<path d="M7240 7776 c0 -14 5 -26 10 -26 6 0 10 9 10 19 0 11 -4 23 -10 26 -6
4 -10 -5 -10 -19z"/>
<path d="M3473 7759 c-6 -8 -15 -43 -19 -77 -5 -52 -11 -65 -28 -72 -24 -10
-22 -11 17 -14 30 -2 53 16 43 33 -4 6 -1 19 5 29 16 26 0 122 -18 101z"/>
<path d="M4356 7745 c-3 -8 -12 -15 -19 -15 -24 0 -18 -47 7 -54 40 -11 46 -7
46 28 0 38 -24 67 -34 41z"/>
<path d="M8073 7744 c-3 -9 0 -20 7 -24 11 -7 11 -11 1 -24 -12 -14 -10 -16 8
-16 12 0 21 6 21 15 0 7 7 18 16 23 14 8 14 11 -7 26 -29 20 -38 20 -46 0z"/>
<path d="M6870 7704 c0 -31 23 -28 28 4 2 15 -2 22 -12 22 -11 0 -16 -9 -16
-26z"/>
<path d="M7840 7660 c0 -12 37 -12 65 0 15 7 10 9 -22 9 -24 1 -43 -3 -43 -9z"/>
<path d="M3280 7495 c0 -8 -4 -15 -10 -15 -5 0 -10 -7 -10 -15 0 -20 24 -19
45 1 12 12 13 19 4 30 -15 18 -29 18 -29 -1z"/>
<path d="M5920 7481 c-11 -22 -5 -61 9 -61 22 0 31 28 17 55 -14 27 -14 27
-26 6z"/>
<path d="M5280 7454 c0 -21 4 -33 10 -29 6 3 10 19 10 36 0 16 -4 29 -10 29
-5 0 -10 -16 -10 -36z"/>
<path d="M8057 7473 c-4 -3 -7 -17 -7 -30 0 -28 23 -27 28 1 4 20 -11 40 -21
29z"/>
<path d="M5114 7445 c-4 -9 -2 -21 3 -26 14 -14 45 1 41 20 -4 22 -37 26 -44
6z"/>
<path d="M6655 7431 c-3 -6 6 -16 20 -21 37 -14 47 -12 43 8 -4 19 -52 29 -63
13z"/>
<path d="M4650 7343 c0 -4 9 -14 21 -21 18 -12 20 -11 17 5 -3 17 -38 32 -38
16z"/>
<path d="M5974 7255 c-8 -33 -3 -38 30 -29 28 7 33 23 14 42 -19 19 -37 14
-44 -13z"/>
<path d="M3662 7248 c-13 -13 -16 -41 -5 -51 6 -7 33 37 33 54 0 13 -14 11
-28 -3z"/>
<path d="M3880 7230 c-11 -7 -12 -12 -3 -21 13 -13 33 -4 33 17 0 16 -9 18
-30 4z"/>
<path d="M3263 7194 c-3 -8 1 -22 9 -30 13 -13 16 -13 27 0 7 9 11 23 7 31 -7
20 -35 19 -43 -1z"/>
<path d="M6994 7166 c-6 -17 2 -36 17 -36 12 0 12 37 -1 45 -6 3 -13 -1 -16
-9z"/>
<path d="M3592 7148 c-13 -13 -16 -38 -4 -38 4 0 13 9 19 20 14 22 2 35 -15
18z"/>
<path d="M3300 7032 c0 -18 28 -45 38 -38 23 14 14 46 -13 46 -14 0 -25 -4
-25 -8z"/>
<path d="M3500 6966 c0 -21 21 -31 30 -15 5 7 6 17 4 21 -9 14 -34 9 -34 -6z"/>
<path d="M6458 6973 c-10 -2 -21 -17 -24 -31 -3 -15 -8 -33 -10 -41 -2 -8 3
-22 11 -31 21 -23 3 -90 -32 -128 -16 -17 -21 -32 -17 -45 5 -16 3 -19 -10
-14 -30 12 -64 -13 -71 -50 -7 -40 -8 -39 26 -48 23 -6 26 -3 35 32 6 26 15
39 29 41 19 3 55 59 55 86 0 8 10 20 23 29 21 14 22 21 21 103 -2 49 -3 92 -3
97 -1 7 -5 7 -33 0z"/>
<path d="M8377 6944 c-13 -13 -7 -24 14 -24 11 0 19 5 17 12 -5 14 -22 21 -31
12z"/>
<path d="M6622 6921 c-8 -4 -16 -26 -19 -49 -5 -40 -5 -40 41 -47 46 -7 46 -7
41 -44 -6 -37 9 -74 23 -56 4 6 24 19 44 29 35 17 40 18 55 3 10 -8 34 -15 55
-15 20 0 50 -3 67 -7 31 -7 31 -7 15 -33 -19 -33 -60 -56 -68 -37 -6 17 -66
27 -82 14 -10 -8 -27 -8 -65 1 -72 17 -97 16 -123 -9 -26 -25 -42 -26 -62 -6
-17 16 -44 10 -44 -11 0 -8 -9 -14 -20 -14 -15 0 -20 -7 -20 -25 0 -32 20 -32
50 0 22 24 24 24 43 8 13 -13 33 -17 66 -16 25 1 65 -5 88 -14 39 -14 48 -14
102 1 38 11 74 14 100 10 32 -5 46 -3 60 10 26 24 113 32 162 16 29 -10 46
-11 57 -4 10 6 40 12 68 13 45 2 52 -1 57 -19 6 -23 26 -22 100 6 50 19 70 18
84 -5 13 -21 113 -35 113 -16 0 21 -16 32 -52 39 -44 8 -51 32 -13 46 28 11
29 13 16 38 -5 9 -12 25 -15 35 -4 11 -16 17 -35 17 -19 0 -40 9 -55 25 -29
29 -41 32 -32 9 12 -31 -3 -56 -30 -50 -17 5 -32 -2 -59 -25 -26 -23 -47 -32
-80 -34 -24 -2 -49 -6 -55 -10 -5 -3 -22 3 -36 14 -15 12 -35 21 -45 21 -11 0
-19 5 -19 10 0 24 -40 50 -66 44 -24 -6 -25 -5 -13 15 12 18 11 23 -3 37 -15
16 -20 16 -68 0 -50 -17 -53 -16 -93 4 -36 19 -45 20 -83 10 -56 -16 -77 -7
-100 40 -19 41 -29 46 -52 31z m150 -123 c-8 -8 -17 -8 -34 0 -22 10 -21 11
12 11 26 1 31 -2 22 -11z m691 -65 c21 -6 22 -26 3 -42 -15 -13 -82 -6 -91 10
-10 15 35 51 53 44 9 -4 25 -10 35 -12z"/>
<path d="M7329 6904 c-16 -19 2 -34 44 -34 35 0 36 27 1 40 -32 13 -29 13 -45
-6z"/>
<path d="M6211 6901 c-11 -7 -9 -13 8 -30 11 -11 21 -33 21 -48 0 -44 18 -13
22 37 3 39 0 45 -17 48 -11 1 -26 -2 -34 -7z"/>
<path d="M5280 6869 c0 -17 4 -28 10 -24 6 3 10 17 10 31 0 13 -4 24 -10 24
-5 0 -10 -14 -10 -31z"/>
<path d="M7680 6890 c0 -5 9 -10 19 -10 13 0 21 -9 26 -30 7 -33 22 -39 32
-14 4 10 -4 24 -23 40 -31 25 -54 31 -54 14z"/>
<path d="M4903 6873 c-7 -2 -13 -16 -13 -29 0 -20 5 -24 29 -24 26 0 29 -4 35
-45 7 -45 7 -45 49 -43 32 2 42 -1 45 -14 4 -21 56 -78 71 -78 6 0 20 -18 31
-40 11 -22 27 -40 35 -40 20 0 20 1 -19 72 -44 84 -96 138 -133 138 -42 0 -57
14 -49 44 8 32 42 35 79 6 37 -29 57 -26 57 9 0 36 -15 48 -30 24 -10 -17 -12
-17 -26 5 -19 26 -59 29 -73 5 -9 -17 -11 -17 -39 0 -17 9 -32 17 -34 16 -1 0
-9 -3 -15 -6z"/>
<path d="M7180 6852 c0 -9 13 -23 30 -30 17 -8 30 -20 30 -28 0 -18 31 -18 56
0 18 14 18 16 -16 45 -41 35 -100 43 -100 13z"/>
<path d="M3307 6854 c-8 -8 13 -54 36 -81 11 -12 17 -29 14 -37 -4 -9 -2 -18
2 -21 5 -3 8 -42 7 -88 -4 -105 13 -149 44 -112 16 19 14 154 -2 171 -5 4 -8
21 -9 38 0 31 -17 83 -18 59 -1 -7 -8 -13 -17 -13 -12 0 -15 6 -10 26 12 46
-19 85 -47 58z"/>
<path d="M6547 6768 c-5 -55 17 -86 32 -46 5 14 15 28 22 30 9 3 7 11 -6 31
-25 39 -42 34 -48 -15z"/>
<path d="M6134 6786 c-11 -29 32 -146 54 -146 5 0 18 13 30 30 21 28 22 32 7
60 -9 16 -22 30 -30 30 -8 0 -19 9 -25 20 -12 23 -28 26 -36 6z"/>
<path d="M4387 6783 c-15 -2 -35 -15 -43 -29 -19 -29 -34 -31 -34 -5 0 23 -64
39 -86 20 -38 -32 5 -102 51 -81 20 9 26 8 33 -5 8 -13 18 -15 48 -9 80 14
295 13 289 -2 -3 -8 -5 -22 -5 -33 0 -23 -26 -25 -38 -3 -8 14 -29 17 -146 16
-123 0 -139 -2 -166 -22 -21 -15 -39 -20 -56 -16 -41 11 -123 -5 -160 -30 -40
-28 -57 -30 -74 -9 -10 12 -8 16 14 25 50 18 35 35 -42 45 -48 6 -54 5 -59
-13 -2 -11 -18 -29 -34 -41 -16 -12 -29 -28 -29 -35 0 -7 -13 -33 -30 -57 -16
-24 -30 -57 -30 -73 0 -26 2 -28 28 -21 15 5 42 9 59 10 18 1 34 3 35 6 2 2 8
13 14 24 6 11 22 22 35 24 13 1 27 8 31 15 6 8 13 8 28 -1 20 -13 92 -18 103
-7 9 10 -16 44 -33 44 -8 0 -2 7 14 15 34 18 57 19 90 4 20 -9 29 -9 42 2 12
10 73 14 268 15 289 2 376 16 376 60 0 51 64 52 72 2 3 -22 70 -67 100 -68 20
0 34 40 23 67 -6 16 -9 15 -29 -9 -12 -16 -25 -28 -30 -28 -9 0 -4 44 9 73 6
14 2 17 -19 17 -21 0 -26 5 -26 25 0 29 -8 32 -25 9 -10 -15 -14 -14 -36 7
-14 13 -33 37 -43 53 -18 28 -19 28 -84 20 -37 -4 -98 -9 -137 -10 -91 -3
-124 -8 -159 -25 -27 -12 -30 -12 -50 14 -12 15 -24 26 -26 26 -3 -1 -17 -4
-33 -6z m483 -71 c0 -41 -63 -54 -68 -14 -3 19 1 22 32 22 20 0 36 -4 36 -8z
m-154 -73 c3 -6 2 -14 -2 -19 -11 -10 -54 6 -54 20 0 13 47 13 56 -1z"/>
<path d="M4110 6755 c0 -14 -4 -25 -10 -25 -5 0 -10 5 -10 11 0 6 -10 9 -22 7
-19 -2 -23 -9 -23 -38 0 -37 1 -37 58 -24 24 6 27 4 25 -17 -4 -34 22 -30 42
6 27 49 8 105 -36 105 -19 0 -24 -5 -24 -25z"/>
<path d="M5269 6741 c-36 -41 -46 -75 -45 -156 1 -70 1 -70 41 -72 22 0 50 -4
63 -8 16 -6 22 -3 22 9 0 9 8 24 19 35 12 12 17 28 14 44 -3 13 0 34 7 46 6
12 8 26 5 32 -10 15 -35 -9 -35 -32 0 -11 -9 -27 -20 -36 -11 -10 -20 -22 -20
-28 0 -6 -6 -20 -14 -30 -14 -19 -15 -19 -34 -2 -27 24 -19 84 14 112 17 14
24 32 26 64 4 54 -9 60 -43 22z"/>
<path d="M7674 6642 c-3 -9 -9 -24 -14 -33 -11 -21 -3 -29 27 -29 35 0 27 -17
-12 -24 -19 -4 -44 -17 -55 -29 -21 -22 -21 -22 -26 0 -5 19 -13 21 -60 21
-38 0 -54 -5 -54 -14 0 -17 39 -39 62 -36 9 2 28 -4 41 -13 20 -13 25 -13 30
-2 4 10 20 13 61 9 38 -3 56 -1 56 7 0 6 7 11 15 11 8 0 19 8 24 19 8 15 6 20
-14 29 -15 7 -25 20 -25 32 0 46 -45 88 -56 52z"/>
<path d="M6197 6494 c-9 -10 2 -24 19 -24 8 0 14 7 14 15 0 15 -21 21 -33 9z"/>
<path d="M4803 6453 c-18 -2 -33 -7 -32 -11 1 -19 67 -56 124 -69 36 -8 65
-19 65 -24 0 -5 13 -9 29 -9 18 0 47 -13 75 -35 26 -19 53 -35 61 -35 7 0 20
-9 28 -20 9 -13 23 -19 38 -18 19 3 24 -3 29 -27 6 -36 28 -42 69 -20 31 15
37 30 23 51 -12 18 -85 63 -93 58 -4 -2 -19 7 -33 21 -14 14 -30 25 -36 25 -6
0 -32 12 -58 28 -66 38 -109 52 -169 52 -39 0 -53 4 -53 14 0 11 -27 31 -33
24 -1 0 -17 -3 -34 -5z"/>
<path d="M6285 6450 c-3 -5 -15 -10 -26 -10 -21 0 -26 -16 -7 -22 17 -6 69 22
63 33 -8 12 -22 12 -30 -1z"/>
<path d="M6560 6450 c0 -5 -13 -10 -29 -10 -16 0 -34 -7 -41 -15 -7 -8 -21
-15 -31 -15 -10 0 -23 -9 -29 -20 -6 -10 -27 -24 -48 -30 -21 -5 -58 -28 -82
-50 -24 -22 -50 -40 -59 -40 -22 -1 -54 -27 -47 -38 3 -5 -4 -26 -15 -46 -25
-46 -20 -52 22 -31 40 21 89 74 89 97 0 11 11 20 28 24 15 4 43 17 62 30 19
12 53 25 74 29 22 4 51 15 64 26 14 10 33 19 42 19 10 0 20 9 23 20 4 17 14
20 61 20 41 0 56 4 56 14 0 8 -7 17 -16 20 -26 10 -124 7 -124 -4z"/>
<path d="M7020 6420 c-8 -5 -62 -9 -119 -9 -86 1 -106 -1 -116 -15 -7 -8 -15
-13 -19 -9 -3 3 -16 1 -29 -5 -12 -6 -35 -13 -51 -17 -24 -5 -27 -9 -21 -28 4
-12 12 -44 17 -72 18 -84 49 -139 82 -143 16 -2 33 1 39 7 19 19 64 13 70 -8
4 -16 11 -18 53 -14 27 3 53 9 59 14 5 5 18 9 30 9 40 0 70 24 71 55 2 109 0
105 44 105 41 0 99 -42 113 -82 4 -10 13 -18 21 -18 18 0 96 -72 96 -88 0 -15
9 -15 40 3 35 20 48 18 52 -7 2 -15 11 -24 25 -26 11 -2 37 -19 57 -38 20 -20
44 -34 54 -32 22 4 28 51 8 68 -9 7 -16 19 -16 26 0 17 -22 18 -37 3 -15 -15
-57 -1 -68 24 -6 12 -20 23 -33 25 -14 2 -29 16 -38 36 -9 17 -29 38 -45 45
-16 7 -29 17 -29 23 0 16 -32 37 -55 38 -24 0 -81 68 -68 81 5 5 22 5 42 -1
22 -6 40 -6 53 1 29 15 11 26 -53 32 -56 5 -56 5 -68 -29 -14 -39 -26 -43 -41
-14 -6 11 -17 20 -25 20 -14 0 -19 11 -16 38 2 15 -57 16 -79 2z m-101 -99
c19 -35 -26 -88 -52 -62 -15 15 -62 14 -87 -1 -25 -16 -54 -1 -58 31 -5 33 14
50 51 45 18 -3 50 -1 72 4 46 10 62 6 74 -17z m126 -63 c6 -65 -7 -84 -48 -69
-42 16 -42 101 0 101 6 0 15 9 18 21 11 33 24 9 30 -53z"/>
<path d="M5232 6393 c2 -12 14 -18 41 -19 46 -3 48 8 4 24 -44 16 -49 15 -45
-5z"/>
<path d="M7583 6398 c2 -7 12 -13 22 -13 10 0 20 6 23 13 2 7 -6 12 -23 12
-17 0 -25 -5 -22 -12z"/>
<path d="M3751 6379 c-27 -25 -23 -44 10 -44 18 0 25 6 27 24 5 35 -11 44 -37
20z"/>
<path d="M7751 6386 c-9 -11 -9 -19 1 -35 14 -23 24 -26 33 -11 3 6 15 10 26
10 13 0 19 7 19 23 0 18 -6 22 -34 24 -19 2 -39 -3 -45 -11z"/>
<path d="M8258 6393 c-21 -5 -23 -19 -5 -26 20 -8 21 -134 0 -145 -24 -14 -26
-264 -2 -257 12 4 19 -2 24 -22 11 -47 27 -1 37 107 12 128 13 131 22 159 6
18 4 26 -8 33 -18 10 -22 63 -6 73 15 10 12 28 -4 22 -17 -7 -27 14 -19 42 5
21 -2 24 -39 14z"/>
<path d="M4301 6369 c-30 -10 -62 -26 -71 -34 -9 -8 -22 -15 -28 -15 -6 0 -22
-19 -34 -41 -13 -23 -29 -52 -36 -65 -8 -14 -10 -34 -6 -47 9 -27 6 -31 -26
-31 -21 -1 -25 -6 -25 -28 1 -20 -4 -28 -16 -28 -21 0 -69 -38 -69 -54 0 -8
15 -16 32 -20 27 -5 36 -2 50 16 11 15 28 23 50 24 69 3 112 17 135 45 13 15
33 31 43 34 11 4 20 15 20 26 0 13 12 25 35 35 20 8 45 24 58 35 12 11 29 26
38 34 32 30 49 9 49 -62 0 -36 18 -83 32 -83 5 0 14 -13 19 -30 11 -30 11 -30
107 -25 54 2 105 4 116 5 12 0 16 5 13 15 -9 23 11 28 23 5 27 -50 75 7 86
101 3 35 11 69 16 76 6 8 5 22 -4 40 -11 24 -19 28 -58 29 -75 2 -180 16 -180
25 0 5 7 9 17 9 9 0 13 3 9 7 -11 11 -96 15 -96 4 0 -18 -32 -42 -49 -36 -29
9 -124 -14 -146 -35 -12 -11 -29 -20 -38 -20 -10 0 -27 -11 -39 -25 -12 -14
-30 -25 -41 -25 -11 0 -37 -18 -59 -40 -22 -22 -44 -40 -49 -40 -12 0 -11 27
1 35 6 3 10 14 10 25 0 10 7 20 15 24 8 3 15 12 15 21 0 8 5 15 11 15 6 0 24
14 39 30 20 21 43 33 72 38 34 6 44 12 46 30 4 27 -13 28 -87 1z m334 -89 c18
-7 33 -7 46 0 33 18 62 -5 55 -43 -4 -18 -13 -39 -22 -47 -14 -13 -18 -12 -39
13 -24 26 -25 27 -35 7 -14 -26 -40 -25 -74 1 -34 27 -34 55 2 67 36 14 36 14
67 2z m213 -93 c3 -47 3 -47 -37 -47 -23 0 -41 3 -41 8 1 23 14 52 25 52 7 0
15 9 18 21 10 37 32 15 35 -34z"/>
<path d="M7333 6376 c3 -7 1 -18 -4 -23 -14 -14 12 -33 55 -40 46 -7 50 19 7
37 -16 6 -32 18 -35 26 -3 8 -10 14 -17 14 -6 0 -9 -6 -6 -14z"/>
<path d="M6140 6324 c0 -14 4 -23 10 -19 6 3 10 15 10 26 0 10 -4 19 -10 19
-5 0 -10 -12 -10 -26z"/>
<path d="M6586 6335 c-11 -8 -26 -15 -34 -15 -8 0 -30 -13 -49 -30 -18 -16
-38 -30 -44 -30 -5 0 -24 -14 -42 -30 -30 -29 -31 -32 -14 -44 39 -30 218 79
229 139 4 24 -21 30 -46 10z"/>
<path d="M3804 6299 c-12 -20 10 -27 64 -22 35 4 52 10 52 19 0 17 -105 20
-116 3z"/>
<path d="M5957 6288 c-5 -18 -8 -19 -21 -8 -14 11 -16 8 -16 -20 0 -26 3 -30
13 -21 10 8 17 7 25 -1 18 -18 31 2 25 40 -6 37 -18 42 -26 10z"/>
<path d="M5377 6283 c-12 -12 -7 -43 7 -43 9 0 12 8 8 25 -5 27 -6 28 -15 18z"/>
<path d="M4953 6274 c-22 -9 -14 -31 11 -38 36 -9 89 -60 84 -82 -2 -10 -16
-25 -31 -32 -36 -17 -56 -52 -29 -52 42 0 57 -49 20 -65 -19 -8 -22 -17 -20
-44 4 -39 -9 -51 -55 -51 -23 0 -33 5 -38 20 -8 24 -25 17 -25 -11 0 -10 -7
-19 -15 -19 -8 0 -15 -8 -15 -19 0 -22 31 -52 37 -35 4 12 65 9 92 -6 14 -7
22 -7 26 0 4 6 15 8 26 5 30 -10 35 22 10 56 -23 31 -16 59 13 59 7 0 20 16
29 35 10 22 24 35 36 35 17 0 31 18 31 41 0 5 -8 9 -18 9 -37 0 -58 52 -26 64
48 19 86 -15 62 -54 -17 -26 1 -40 53 -40 48 0 72 26 44 46 -10 8 -29 14 -42
14 -16 0 -27 9 -35 28 -13 30 -46 61 -66 62 -7 0 -18 4 -25 10 -58 47 -77 59
-98 64 -13 3 -30 2 -36 0z"/>
<path d="M7410 6261 c0 -13 8 -21 22 -23 14 -2 25 -13 29 -28 7 -25 7 -25 8 0
1 30 -24 70 -45 70 -8 0 -14 -9 -14 -19z"/>
<path d="M5876 6199 c-12 -60 -7 -119 9 -119 12 0 15 15 15 75 0 77 -13 100
-24 44z"/>
<path d="M5918 6205 c-12 -12 4 -63 19 -58 50 19 86 -103 44 -148 -21 -22 -36
-68 -26 -77 10 -10 23 19 18 39 -3 10 -1 19 3 19 5 0 19 3 30 6 16 4 23 0 27
-18 5 -17 9 -20 18 -11 13 13 20 133 8 148 -4 6 -9 21 -11 34 -4 30 -65 68
-81 52 -16 -16 -37 -13 -31 4 6 14 -7 21 -18 10z"/>
<path d="M6326 6149 c-44 -34 -30 -59 33 -59 33 0 93 28 86 40 -7 11 -65 40
-80 40 -7 0 -24 -9 -39 -21z"/>
<path d="M6508 6128 c-19 -7 -28 -17 -29 -34 -1 -13 -2 -29 -3 -36 -1 -6 5
-13 12 -15 7 -3 12 4 12 15 0 23 71 56 100 47 21 -7 38 14 21 24 -18 11 -82
11 -113 -1z"/>
<path d="M8545 6111 c-6 -29 8 -71 24 -71 12 0 35 76 27 89 -14 23 -44 12 -51
-18z"/>
<path d="M7100 6085 c-19 -23 -5 -48 22 -40 23 7 48 32 48 47 0 14 -57 9 -70
-7z"/>
<path d="M4399 6073 c-24 -6 -2 -63 24 -63 15 0 18 6 15 32 -3 32 -11 39 -39
31z"/>
<path d="M6136 6018 c7 -43 43 -88 71 -88 7 0 19 -11 25 -25 14 -30 32 -28 36
5 4 22 -38 70 -61 70 -5 0 -7 6 -4 14 6 15 -41 66 -61 66 -9 0 -10 -12 -6 -42z"/>
<path d="M4917 6044 c-14 -15 -6 -34 14 -34 14 0 19 5 17 17 -3 18 -20 27 -31
17z"/>
<path d="M7001 6036 c-9 -10 -7 -16 5 -27 18 -15 36 3 27 28 -7 17 -18 17 -32
-1z"/>
<path d="M6865 6030 c-9 -15 4 -30 27 -30 14 0 18 5 14 16 -3 9 -6 18 -6 20 0
8 -29 4 -35 -6z"/>
<path d="M8427 6022 c-37 -41 -60 -102 -49 -128 15 -31 50 -32 61 -1 13 35 22
135 12 141 -4 3 -15 -2 -24 -12z"/>
<path d="M4493 6007 c-37 -12 -43 -22 -36 -60 6 -28 33 -38 33 -12 0 8 14 22
31 30 18 10 29 23 27 32 -4 21 -15 23 -55 10z"/>
<path d="M7285 6000 c-14 -15 -16 -23 -7 -32 11 -11 42 10 42 31 0 20 -18 20
-35 1z"/>
<path d="M7360 6004 c0 -9 7 -14 17 -12 25 5 28 28 4 28 -12 0 -21 -6 -21 -16z"/>
<path d="M6590 5995 c-15 -18 -6 -45 13 -45 20 0 40 27 33 45 -7 19 -30 19
-46 0z"/>
<path d="M4632 5978 c-13 -17 -10 -80 5 -85 6 -2 23 11 38 29 27 32 27 32 5
50 -26 21 -34 22 -48 6z"/>
<path d="M6687 5983 c-4 -3 -7 -23 -7 -44 0 -44 19 -59 72 -59 30 1 31 2 16
14 -10 7 -18 17 -18 22 0 5 -9 17 -20 27 -11 9 -20 24 -20 32 0 16 -12 20 -23
8z"/>
<path d="M7122 5978 c-19 -19 -14 -30 10 -26 13 2 24 11 26 21 4 20 -18 23
-36 5z"/>
<path d="M5342 5968 c7 -19 38 -22 38 -4 0 10 -9 16 -21 16 -12 0 -19 -5 -17
-12z"/>
<path d="M6513 5946 c0 -27 31 -64 41 -48 9 15 -10 67 -26 70 -11 2 -15 -5
-15 -22z"/>
<path d="M5085 5936 c-18 -13 -18 -14 4 -21 22 -7 40 6 41 28 0 12 -25 8 -45
-7z"/>
<path d="M5177 5920 c-21 -25 -21 -31 -3 -67 8 -15 17 -36 20 -45 8 -27 24
-21 28 10 2 21 8 27 26 25 14 -2 22 3 22 12 0 8 14 24 30 37 47 35 39 46 -38
47 -56 1 -71 -3 -85 -19z"/>
<path d="M7180 5895 c-20 -24 -4 -29 19 -6 14 14 17 21 7 21 -7 0 -19 -7 -26
-15z"/>
<path d="M4780 5863 c-14 -7 -37 -13 -52 -13 -16 0 -28 -5 -28 -10 0 -16 28
-24 43 -12 23 18 70 24 78 10 7 -11 9 -11 9 0 0 27 -23 39 -50 25z"/>
<path d="M5944 5872 c-27 -4 -35 -32 -27 -89 6 -46 19 -57 25 -22 5 37 36 48
58 22 29 -36 40 -28 40 27 0 50 0 50 -34 50 -19 0 -36 3 -38 8 -1 4 -13 6 -24
4z"/>
<path d="M8276 5873 c-3 -4 -6 -65 -6 -136 0 -120 1 -129 20 -134 25 -7 26
-38 2 -59 -12 -10 -17 -24 -14 -40 4 -23 22 -34 22 -14 0 7 6 7 18 1 9 -5 25
-12 34 -15 16 -5 17 -15 12 -93 -6 -103 -6 -103 -48 -103 -36 0 -45 15 -46 75
-1 80 -35 104 -45 33 -8 -53 0 -190 14 -243 14 -55 14 -57 -10 -45 -17 10 -24
7 -45 -15 -27 -29 -26 -55 2 -55 10 0 14 -5 10 -15 -3 -8 -1 -15 5 -15 13 0 7
-119 -6 -123 -5 -1 -11 17 -13 41 -4 55 -22 54 -45 -2 -14 -33 -16 -53 -10
-78 5 -18 8 -51 7 -73 -1 -22 4 -51 11 -65 8 -14 13 -48 12 -75 -1 -50 -1 -50
39 -52 66 -5 68 0 71 144 1 70 4 139 7 153 2 14 5 33 5 43 1 9 8 17 16 17 16
0 20 15 7 24 -5 3 -7 19 -4 36 2 18 -1 42 -8 55 -11 20 -10 26 4 40 10 11 16
33 16 65 0 67 37 115 67 87 24 -21 62 -22 70 -2 7 21 -4 32 -19 17 -25 -25
-29 -10 -24 76 2 48 5 98 5 112 1 31 -18 70 -35 70 -28 0 -23 20 8 36 51 26
62 51 26 56 -20 3 -23 9 -23 48 0 30 -7 55 -21 75 -31 44 -38 84 -19 105 14
15 14 18 -2 32 -19 15 -56 21 -67 11z m-68 -1041 c4 -25 -13 -30 -22 -6 -9 25
-7 36 7 32 6 -3 13 -14 15 -26z"/>
<path d="M4343 5854 c-25 -11 -12 -25 20 -22 17 2 32 8 32 13 0 11 -33 17 -52
9z"/>
<path d="M4450 5850 c-40 -8 -29 -11 52 -13 44 -2 54 1 46 11 -11 13 -42 14
-98 2z"/>
<path d="M6292 5848 c3 -7 15 -15 27 -16 16 -3 22 1 19 10 -3 7 -15 15 -27 16
-16 3 -22 -1 -19 -10z"/>
<path d="M5417 5774 c-13 -14 -7 -54 8 -54 16 0 18 14 6 43 -3 10 -10 15 -14
11z"/>
<path d="M5895 5680 c-8 -13 4 -32 16 -25 12 8 12 35 0 35 -6 0 -13 -4 -16
-10z"/>
<path d="M5951 5588 c-1 -56 7 -77 30 -78 3 0 4 26 3 58 -3 82 -3 82 -18 82
-10 0 -14 -16 -15 -62z"/>
<path d="M5900 5618 c0 -9 -9 -19 -19 -23 -17 -5 -19 -14 -16 -70 4 -72 12
-105 26 -105 10 0 11 17 11 115 0 33 3 62 8 65 5 3 5 12 0 20 -8 13 -10 12
-10 -2z"/>
<path d="M6625 5620 c-9 -15 4 -30 25 -30 27 0 34 17 11 29 -24 13 -28 14 -36
1z"/>
<path d="M8150 5611 c0 -11 5 -23 10 -26 6 -4 10 5 10 19 0 14 -4 26 -10 26
-5 0 -10 -9 -10 -19z"/>
<path d="M6296 5611 c-6 -9 35 -24 43 -15 6 5 -18 24 -31 24 -4 0 -9 -4 -12
-9z"/>
<path d="M5945 5470 c-39 -7 -48 -40 -11 -40 24 0 25 -2 14 -25 -13 -30 -4
-43 20 -29 9 6 34 9 55 6 30 -3 36 -1 31 11 -3 9 -13 18 -22 22 -16 6 -16 7 1
19 10 8 15 20 11 29 -6 16 -36 18 -99 7z"/>
<path d="M5513 5313 c-28 -5 -40 -50 -19 -71 14 -14 16 -14 21 1 4 8 12 14 20
11 7 -3 15 5 19 21 7 26 1 46 -12 44 -4 -1 -17 -4 -29 -6z"/>
<path d="M6960 5307 c0 -8 7 -20 15 -27 12 -10 15 -10 15 3 0 8 -7 20 -15 27
-12 10 -15 10 -15 -3z"/>
<path d="M6030 5294 c0 -9 7 -14 17 -12 25 5 28 28 4 28 -12 0 -21 -6 -21 -16z"/>
<path d="M6136 5292 c-3 -4 -1 -27 5 -50 6 -26 5 -50 -1 -67 -6 -15 -8 -31 -4
-36 7 -12 34 -12 34 1 0 6 7 10 16 10 11 0 14 -8 12 -32 -3 -29 0 -33 20 -31
12 2 22 -2 22 -9 0 -6 11 1 26 17 24 26 25 28 7 49 -10 11 -19 23 -21 26 -1 2
-15 4 -30 5 -24 0 -27 4 -25 32 2 18 -2 35 -7 38 -6 3 -10 14 -10 25 0 10 -7
21 -16 24 -20 8 -22 8 -28 -2z"/>
<path d="M6242 5208 c5 -15 28 -18 29 -3 0 6 -7 12 -17 13 -10 3 -15 -1 -12
-10z"/>
<path d="M5787 5193 c-14 -13 -7 -42 8 -37 8 4 15 15 15 25 0 19 -11 25 -23
12z"/>
<path d="M5263 5140 c-32 -39 -47 -76 -39 -97 7 -17 8 -17 22 1 8 11 14 30 14
43 0 13 5 23 10 23 6 0 10 6 10 14 0 8 4 16 10 18 5 2 6 8 2 14 -4 7 -15 1
-29 -16z"/>
<path d="M8515 5138 c-11 -6 -21 -12 -23 -13 -2 -2 6 -17 17 -36 20 -32 20
-32 27 -3 4 16 11 32 17 35 10 7 1 29 -11 29 -4 0 -16 -6 -27 -12z"/>
<path d="M5285 5110 c-8 -13 -7 -16 21 -24 15 -4 24 -2 28 9 3 8 1 15 -3 15
-5 0 -16 3 -24 6 -8 3 -18 0 -22 -6z"/>
<path d="M6322 5112 c-13 -4 -17 -92 -4 -92 18 0 74 -132 67 -159 -3 -14 -9
-41 -12 -58 -3 -18 -9 -33 -14 -33 -5 0 -9 -7 -9 -15 0 -8 -4 -15 -10 -15 -5
0 -18 -17 -27 -37 -16 -33 -23 -38 -55 -41 -34 -3 -40 1 -74 47 -35 47 -54 56
-54 27 0 -7 -12 -18 -27 -25 -26 -12 -30 -10 -55 20 -32 39 -58 28 -58 -26 0
-26 -4 -31 -22 -31 -20 1 -21 -4 -22 -59 0 -52 3 -60 20 -63 24 -3 50 23 59
61 6 23 4 27 -14 27 -28 0 -27 17 1 26 16 5 26 1 36 -15 19 -28 68 -28 99 1
13 12 24 17 24 12 1 -5 3 -19 4 -30 1 -12 5 -27 10 -33 4 -7 1 -25 -5 -41 -13
-31 -7 -80 10 -80 6 0 10 9 10 21 0 11 5 17 10 14 6 -3 10 3 10 14 0 46 21 71
60 71 27 0 43 7 65 30 16 17 32 30 37 30 14 0 48 39 48 56 0 9 -9 18 -20 21
-19 5 -18 7 10 36 19 19 27 34 21 40 -14 14 9 57 31 57 27 0 22 13 -12 33 -16
10 -29 21 -29 25 4 22 -3 31 -17 25 -15 -5 -16 0 -12 42 9 76 -30 134 -80 117z"/>
<path d="M8416 5064 c-9 -23 -7 -77 3 -93 7 -11 11 -9 20 8 7 11 21 21 31 21
14 0 20 7 20 21 0 18 -2 19 -15 9 -13 -11 -17 -8 -28 19 -13 34 -22 39 -31 15z"/>
<path d="M5164 4998 c-18 -19 0 -38 19 -19 6 6 23 11 38 11 24 0 53 19 32 21
-54 5 -76 2 -89 -13z"/>
<path d="M5585 4980 c-7 -12 19 -53 28 -43 4 3 7 17 7 30 0 23 -23 32 -35 13z"/>
<path d="M5182 4939 c1 -13 8 -23 13 -21 15 3 12 35 -3 40 -9 3 -13 -3 -10
-19z"/>
<path d="M6237 4910 c-6 -33 -13 -48 -30 -55 -13 -6 -23 -21 -25 -37 -3 -24
-1 -26 34 -25 35 2 39 5 46 39 4 22 2 53 -6 80 -12 43 -12 43 -19 -2z"/>
<path d="M5093 4921 c-10 -16 -10 -25 1 -46 13 -26 13 -26 20 -3 15 57 2 87
-21 49z"/>
<path d="M5027 4892 c-9 -2 -24 -17 -33 -34 -15 -29 -15 -32 4 -51 21 -20 21
-20 41 14 29 48 24 79 -12 71z"/>
<path d="M5331 4816 c-9 -11 -8 -15 5 -20 22 -8 24 -8 24 8 0 21 -16 28 -29
12z"/>
<path d="M6560 4810 c0 -5 14 -10 31 -10 17 0 28 4 24 10 -3 6 -17 10 -31 10
-13 0 -24 -4 -24 -10z"/>
<path d="M4950 4752 c-34 -11 -40 -23 -27 -51 8 -14 12 -34 10 -43 -5 -22 13
-24 21 -3 3 8 12 15 21 15 8 0 15 7 15 15 0 8 -7 15 -15 15 -17 0 -20 21 -4
37 13 13 0 22 -21 15z"/>
<path d="M5220 4745 c0 -9 11 -26 25 -39 14 -13 25 -28 25 -35 0 -6 28 -25 62
-41 34 -16 69 -37 78 -45 16 -14 22 -11 74 31 31 26 55 48 54 49 -2 2 -29 17
-62 34 -53 29 -59 30 -70 15 -11 -15 -17 -15 -77 1 -35 10 -74 24 -86 32 -20
12 -23 11 -23 -2z"/>
<path d="M4847 4664 c-13 -14 -8 -131 7 -143 23 -19 39 14 40 82 0 55 -2 62
-20 65 -11 2 -23 0 -27 -4z"/>
<path d="M5775 4623 c-5 -12 -9 -14 -12 -5 -3 6 -12 12 -21 12 -12 0 -13 -3
-4 -12 9 -9 5 -15 -18 -24 -17 -7 -30 -18 -30 -23 0 -19 98 -26 127 -8 13 8
28 -8 42 -46 7 -18 17 -27 28 -26 25 4 63 -19 63 -36 0 -8 8 -15 19 -15 25 0
44 -25 36 -49 -6 -19 10 -59 30 -73 6 -4 10 -13 11 -20 6 -67 18 -97 41 -103
16 -4 23 -11 20 -19 -3 -8 2 -21 12 -30 21 -19 131 -22 149 -4 20 20 50 -16
35 -41 -11 -17 -8 -20 25 -25 72 -12 76 -12 80 9 3 11 11 25 20 31 25 18 8 62
-22 57 -18 -4 -29 2 -41 21 -22 34 -39 33 -65 -4 -12 -16 -30 -30 -41 -30 -23
0 -25 13 -4 30 18 15 19 40 2 64 -12 17 -15 16 -50 -15 -23 -20 -37 -42 -37
-56 0 -16 -6 -23 -20 -23 -17 0 -19 3 -8 19 14 24 -2 48 -35 53 -18 2 -23 11
-25 42 -2 21 -9 48 -17 60 -22 35 -27 98 -11 129 21 38 11 61 -23 51 -14 -4
-35 -8 -47 -9 -11 -1 -26 -5 -34 -10 -10 -6 -12 -3 -7 14 4 18 -1 26 -24 39
-16 10 -29 20 -29 25 0 4 -13 7 -29 7 -22 0 -31 6 -37 23 -11 37 -37 48 -49
20z"/>
<path d="M5536 4614 c-17 -44 10 -119 40 -107 7 3 16 -2 19 -11 17 -53 15 -51
31 -34 22 22 8 65 -28 84 -30 15 -31 23 -13 67 6 13 2 17 -18 17 -14 0 -28 -7
-31 -16z"/>
<path d="M6113 4533 c-18 -7 -17 -53 1 -53 12 0 16 7 25 45 3 11 -9 15 -26 8z"/>
<path d="M3767 4493 c-11 -10 -8 -51 4 -59 6 -3 22 5 36 19 14 14 22 30 19 36
-8 12 -49 15 -59 4z"/>
<path d="M5470 4480 c0 -5 9 -14 20 -20 26 -14 26 -40 0 -40 -23 0 -38 -26
-24 -40 5 -5 19 -7 31 -4 31 8 43 82 17 101 -21 15 -44 17 -44 3z"/>
<path d="M7160 4474 c0 -9 46 -34 62 -34 4 0 8 7 8 15 0 8 -6 15 -12 15 -7 0
-23 3 -35 6 -13 4 -23 2 -23 -2z"/>
<path d="M5421 4441 c-17 -13 -20 -20 -11 -26 7 -4 20 1 32 13 26 26 9 36 -21
13z"/>
<path d="M6106 4433 c-13 -14 -5 -60 14 -76 14 -12 18 -25 15 -44 -7 -38 9
-62 32 -47 20 12 36 61 22 70 -5 3 -9 12 -9 21 0 18 -65 85 -74 76z"/>
<path d="M5700 4402 c0 -10 -6 -26 -13 -37 -7 -11 -14 -31 -15 -45 0 -13 -8
-30 -17 -36 -18 -14 -19 -28 -3 -54 16 -25 3 -49 -34 -67 -20 -10 -24 -18 -20
-38 6 -33 35 -49 61 -35 32 16 86 12 114 -10 14 -11 29 -20 34 -20 16 0 55 48
48 59 -8 14 -70 14 -96 1 -23 -13 -23 -7 -4 56 9 27 18 71 20 98 3 31 12 58
25 71 15 16 19 30 14 49 -7 31 -24 33 -49 6 -10 -11 -22 -20 -27 -20 -4 0 -8
9 -8 20 0 11 -7 20 -15 20 -8 0 -15 -8 -15 -18z"/>
<path d="M4641 4360 c0 -33 1 -34 11 -12 8 17 8 26 0 34 -9 9 -12 4 -11 -22z"/>
<path d="M5336 4336 c-14 -19 -26 -37 -26 -40 0 -12 34 -5 51 10 41 37 54 -27
14 -70 -30 -33 -31 -38 -6 -60 25 -23 39 -14 47 29 7 38 24 48 24 14 0 -11 5
-29 11 -40 9 -17 7 -21 -9 -26 -12 -3 -19 -13 -19 -28 0 -21 2 -22 31 -14 17
5 31 9 32 9 1 0 4 13 7 29 5 25 12 30 47 36 22 4 40 10 40 14 0 17 -38 41 -61
39 -22 -3 -24 0 -21 35 4 39 -21 83 -39 71 -5 -3 -19 2 -31 10 -35 25 -63 19
-92 -18z"/>
<path d="M6254 4346 c-4 -10 -2 -22 4 -28 8 -8 13 -7 18 6 4 10 2 22 -4 28 -8
8 -13 7 -18 -6z"/>
<path d="M6406 4324 c-6 -16 18 -54 34 -54 14 0 20 31 10 51 -13 23 -36 25
-44 3z"/>
<path d="M6530 4322 c-39 -19 -52 -60 -26 -82 9 -7 16 -19 16 -27 0 -23 42
-63 67 -63 16 0 25 -8 29 -25 3 -13 12 -30 20 -36 23 -19 49 11 40 46 -7 26
-11 29 -57 39 -23 5 -26 10 -24 42 1 20 7 39 12 43 18 12 13 51 -7 51 -11 0
-23 7 -27 15 -8 13 -13 12 -43 -3z"/>
<path d="M4908 4313 c-22 -6 -23 -27 -2 -47 31 -32 59 -15 48 29 -6 25 -12 27
-46 18z"/>
<path d="M5827 4313 c-12 -12 -7 -41 8 -46 8 -4 15 -19 15 -34 3 -101 3 -101
28 -106 13 -3 40 0 58 5 37 10 37 9 -7 73 -15 22 -30 54 -34 71 -4 21 -14 34
-28 38 -28 7 -32 7 -40 -1z"/>
<path d="M6772 4248 c5 -32 28 -35 28 -4 0 17 -5 26 -16 26 -10 0 -14 -7 -12
-22z"/>
<path d="M5223 4230 c-21 -25 -21 -25 -48 0 -29 27 -34 24 -120 -85 -30 -39
-23 -98 13 -103 18 -3 22 1 20 14 -2 12 7 23 25 32 15 7 27 20 27 28 0 17 31
19 48 2 7 -7 12 -23 12 -36 0 -21 2 -22 15 -12 8 7 15 19 15 26 0 16 36 19 45
4 7 -11 45 -13 68 -4 23 8 9 41 -24 54 -21 9 -29 19 -29 38 0 13 -10 34 -23
46 -23 21 -23 21 -44 -4z"/>
<path d="M6955 4220 c-3 -5 -17 -10 -31 -10 -21 0 -24 -4 -19 -20 4 -12 2 -20
-6 -20 -8 0 -8 -4 -1 -12 5 -7 12 -24 14 -38 2 -16 9 -25 21 -25 23 0 52 72
36 91 -5 6 -7 19 -3 28 7 18 -1 22 -11 6z"/>
<path d="M7262 4214 c1 -9 9 -19 16 -22 9 -3 13 2 10 14 -1 9 -9 19 -16 22 -9
3 -13 -2 -10 -14z"/>
<path d="M4858 4153 c-10 -2 -18 -12 -18 -22 0 -9 -13 -30 -30 -46 -19 -19
-30 -39 -30 -57 0 -15 -4 -28 -10 -28 -5 0 -10 -9 -10 -20 0 -14 -9 -21 -34
-26 -40 -7 -39 -34 1 -34 32 0 28 -34 -5 -38 -12 -2 -29 -16 -37 -33 -34 -66
-66 -15 -44 71 10 40 16 49 30 45 22 -7 34 12 19 30 -10 12 -9 22 5 51 19 41
10 62 -21 46 -11 -5 -32 -15 -47 -21 -27 -11 -28 -14 -22 -56 5 -30 2 -61 -11
-100 -17 -56 -17 -56 9 -81 23 -21 27 -33 27 -82 0 -31 3 -67 6 -80 5 -18 2
-24 -15 -29 -36 -9 -43 -84 -8 -91 10 -2 25 5 35 16 9 10 36 25 60 32 32 10
42 18 42 34 0 22 29 111 44 134 6 10 11 10 22 1 18 -15 44 5 44 35 0 42 14 50
86 47 37 -1 76 -8 88 -16 34 -21 118 -28 141 -12 13 11 26 12 43 6 13 -5 37
-9 55 -8 69 1 203 -8 220 -16 9 -4 23 -2 31 4 15 13 76 4 76 -12 0 -6 21 -7
56 -3 46 5 61 3 75 -10 15 -14 24 -15 46 -5 16 6 71 13 123 15 52 2 105 7 116
11 14 4 27 1 35 -8 11 -12 19 -12 44 -2 35 15 179 29 285 29 87 -1 122 -15
118 -47 -2 -12 2 -22 7 -22 6 0 9 10 7 22 -3 28 27 45 66 37 21 -4 40 1 70 20
23 14 53 26 66 26 14 0 36 5 50 11 29 14 76 4 76 -15 0 -8 6 -21 14 -29 26
-26 24 -63 -4 -70 -11 -3 -20 -13 -20 -22 0 -18 21 -18 63 0 17 7 23 -10 19
-58 -1 -10 7 -30 18 -44 11 -14 20 -33 20 -43 0 -42 59 -115 77 -96 14 13 2
100 -17 126 -12 17 -20 44 -20 69 0 29 -4 41 -14 41 -13 0 -36 74 -36 116 0 8
-5 24 -11 35 -10 19 -12 20 -29 4 -28 -25 -45 -14 -45 31 0 39 0 39 -40 39
-22 0 -48 4 -57 9 -9 4 -25 3 -37 -3 -11 -6 -28 -11 -39 -11 -11 0 -41 -10
-68 -22 -41 -18 -66 -21 -151 -20 -61 1 -125 -4 -160 -13 -32 -8 -74 -13 -93
-11 -19 2 -61 -2 -93 -9 -55 -13 -59 -12 -84 9 -26 23 -26 23 -46 3 -18 -18
-20 -18 -35 -3 -22 22 -5 50 32 54 28 4 34 20 14 40 -17 17 -42 15 -69 -7 -13
-10 -30 -16 -38 -13 -8 3 -32 -15 -56 -42 -42 -47 -42 -47 -118 -33 -43 8 -84
20 -91 26 -12 10 -18 7 -31 -13 -16 -24 -22 -25 -83 -22 -65 3 -104 26 -44 26
25 0 30 5 36 31 12 59 -21 68 -54 14 -19 -31 -27 -35 -61 -35 -36 0 -40 2 -34
21 7 20 4 20 -52 14 -32 -4 -73 -13 -91 -21 -19 -9 -68 -16 -121 -17 -92 -2
-121 8 -121 43 0 14 -10 17 -59 18 -52 0 -60 -2 -70 -24 -6 -13 -20 -25 -31
-25 -11 -1 -25 -2 -32 -3 -15 -1 -20 16 -9 33 8 12 12 12 25 2 22 -18 31 6 22
59 -5 34 -4 40 12 40 10 0 28 11 40 25 18 20 28 24 50 19 36 -9 38 -12 24 -35
-17 -27 1 -59 33 -59 28 0 35 36 13 58 -9 9 -9 15 0 24 17 17 15 38 -3 38 -8
0 -29 9 -47 20 -33 20 -47 22 -80 13z"/>
<path d="M7466 4152 c-8 -14 8 -98 19 -92 12 7 10 79 -3 92 -6 6 -12 6 -16 0z"/>
<path d="M4122 4134 c-26 -28 -25 -61 4 -83 31 -24 44 -27 44 -7 0 7 9 25 21
40 30 38 22 60 -22 61 -19 1 -40 -4 -47 -11z"/>
<path d="M6754 4096 c-3 -14 -12 -27 -20 -30 -18 -7 -19 -66 -1 -66 6 1 24 19
40 41 22 32 25 44 17 59 -14 27 -28 25 -36 -4z"/>
<path d="M7367 4082 c-24 -26 -21 -32 11 -32 35 0 41 6 35 31 -7 24 -25 24
-46 1z"/>
<path d="M6472 4074 c2 -11 11 -20 22 -22 13 -3 17 1 14 14 -2 11 -11 20 -22
22 -13 3 -17 -1 -14 -14z"/>
<path d="M4240 4019 c0 -24 23 -21 28 4 2 10 -3 17 -12 17 -10 0 -16 -9 -16
-21z"/>
<path d="M6046 3992 c-7 -11 4 -52 14 -52 19 0 33 30 20 45 -14 17 -26 19 -34
7z"/>
<path d="M6180 3952 c0 -10 33 -42 43 -42 15 0 6 30 -12 40 -24 12 -31 13 -31
2z"/>
<path d="M7484 3952 c-15 -9 -25 -94 -14 -112 10 -16 9 -18 28 60 11 46 6 65
-14 52z"/>
<path d="M7023 3890 c0 -36 2 -50 4 -32 2 17 2 47 0 65 -2 17 -4 3 -4 -33z"/>
<path d="M3975 3930 c-3 -6 -3 -19 0 -31 6 -16 12 -19 36 -14 24 5 28 4 23 -9
-3 -9 -1 -16 5 -16 6 0 11 -11 11 -24 0 -36 18 -41 32 -11 11 25 9 29 -35 71
-48 45 -61 51 -72 34z"/>
<path d="M7240 3923 c1 -29 27 -56 46 -49 15 6 16 8 0 24 -9 10 -16 24 -16 30
0 7 -7 12 -15 12 -8 0 -15 -8 -15 -17z"/>
<path d="M4182 3873 c3 -38 24 -56 34 -29 9 24 -4 66 -22 66 -11 0 -14 -9 -12
-37z"/>
<path d="M4522 3883 c5 -25 28 -28 28 -4 0 12 -6 21 -16 21 -9 0 -14 -7 -12
-17z"/>
<path d="M4282 3857 c-9 -10 -8 -18 3 -33 13 -16 16 -17 25 -4 21 31 -5 65
-28 37z"/>
<path d="M7681 3848 c-1 -10 -8 -18 -17 -18 -14 0 -14 -3 -4 -15 24 -29 44 -8
29 30 -6 17 -8 17 -8 3z"/>
<path d="M7450 3775 c-19 -23 7 -52 28 -31 15 15 10 46 -6 46 -5 0 -15 -7 -22
-15z"/>
<path d="M5183 3738 c2 -7 12 -13 22 -13 10 0 20 6 23 13 2 7 -6 12 -23 12
-17 0 -25 -5 -22 -12z"/>
<path d="M4222 3724 c-10 -18 -5 -54 8 -54 5 0 16 -3 25 -6 14 -6 16 -1 13 32
-3 43 -29 58 -46 28z"/>
<path d="M7140 3705 c0 -25 4 -35 13 -33 18 7 20 43 2 58 -13 11 -15 8 -15
-25z"/>
<path d="M7325 3730 c-7 -12 2 -30 16 -30 12 0 12 27 0 35 -5 3 -12 1 -16 -5z"/>
<path d="M3988 3690 c-1 -16 -2 -37 -2 -47 -2 -27 20 -26 38 2 21 31 12 75
-15 75 -14 0 -19 -8 -21 -30z"/>
<path d="M6187 3713 c-15 -14 -6 -25 18 -21 14 3 28 1 31 -3 5 -8 38 -5 74 8
12 4 11 7 -5 13 -24 10 -109 13 -118 3z"/>
<path d="M7777 3674 c-11 -12 3 -24 29 -24 27 0 32 15 8 24 -20 8 -29 8 -37 0z"/>
<path d="M6120 3661 c0 -13 26 -32 33 -24 14 13 6 33 -13 33 -11 0 -20 -4 -20
-9z"/>
<path d="M7367 3663 c-19 -19 6 -173 28 -173 20 0 36 120 19 152 -14 27 -33
36 -47 21z"/>
<path d="M4090 3618 c-5 -13 -20 -35 -32 -51 -20 -24 -21 -31 -10 -60 10 -28
9 -39 -3 -64 -17 -35 -6 -83 19 -83 17 0 28 79 13 97 -12 16 -2 43 17 43 15 0
26 21 26 52 0 10 7 26 15 35 21 21 15 47 -13 51 -15 2 -25 -4 -32 -20z"/>
<path d="M6500 3581 c0 -12 6 -21 16 -21 9 0 14 7 12 17 -5 25 -28 28 -28 4z"/>
<path d="M5100 3578 c0 -8 11 -21 25 -28 29 -15 32 -32 10 -54 -8 -8 -15 -18
-15 -22 0 -5 5 -3 11 3 6 6 17 9 24 7 7 -3 15 4 18 15 7 29 26 26 37 -5 14
-36 12 -54 -4 -54 -20 0 -31 -19 -18 -32 8 -8 16 -7 26 2 44 36 153 -22 140
-74 -4 -17 0 -25 12 -30 20 -8 39 7 39 32 0 11 11 19 30 22 41 8 75 0 75 -16
0 -18 24 -18 40 0 7 9 27 14 50 13 45 -1 49 1 52 33 3 20 -2 25 -27 30 -25 4
-31 10 -33 38 -2 17 -5 32 -7 32 -14 0 -55 -51 -55 -69 0 -11 -5 -21 -11 -21
-6 0 -9 6 -6 14 6 16 -32 56 -54 56 -8 0 -20 5 -27 12 -9 9 -12 7 -12 -8 0
-23 -33 -58 -43 -47 -4 3 -7 21 -7 38 0 41 -21 61 -49 46 -28 -16 -38 -14 -44
9 -4 17 -14 20 -56 20 -28 0 -51 5 -51 10 0 6 -8 10 -17 10 -9 0 -25 7 -35 17
-15 14 -18 14 -18 1z"/>
<path d="M4228 3547 c-36 -29 -35 -37 2 -37 30 0 57 30 45 50 -9 14 -17 12
-47 -13z"/>
<path d="M7244 3546 c-7 -19 3 -36 22 -36 10 0 14 8 12 22 -4 26 -26 36 -34
14z"/>
<path d="M4683 3533 c-31 -90 -42 -100 -86 -84 -21 8 -27 17 -28 43 -1 20 -3
25 -6 13 -7 -36 -27 -70 -51 -91 -19 -15 -23 -26 -17 -43 10 -32 49 -25 53 11
5 40 25 52 63 39 27 -9 35 -7 67 17 28 21 46 27 88 27 64 0 75 8 34 25 -16 7
-30 19 -30 26 0 30 -77 44 -87 17z"/>
<path d="M5774 3539 c-9 -15 5 -26 49 -33 43 -8 46 -2 15 25 -26 21 -53 24
-64 8z"/>
<path d="M6355 3543 c-52 -6 -63 -17 -40 -43 22 -24 68 -20 99 10 19 18 15 41
-7 38 -7 -1 -30 -3 -52 -5z"/>
<path d="M4423 3501 c-26 -31 -30 -41 -19 -50 14 -12 61 32 51 48 -2 5 5 11
18 15 18 5 20 8 7 16 -21 14 -22 14 -57 -29z"/>
<path d="M5640 3533 c0 -4 12 -17 27 -29 26 -21 27 -22 10 -47 -22 -35 -22
-40 9 -54 33 -15 44 -9 44 22 0 13 5 27 10 30 19 12 10 30 -29 58 -37 26 -71
35 -71 20z"/>
<path d="M5954 3522 c-8 -12 -8 -22 0 -34 14 -23 -20 -64 -40 -47 -7 6 -23 9
-36 7 -19 -2 -23 -9 -21 -37 2 -41 17 -59 36 -42 12 9 16 8 21 -4 8 -23 25
-18 36 11 9 22 13 24 25 14 8 -7 15 -22 15 -35 0 -27 34 -59 55 -52 8 4 15 16
15 27 0 30 -38 110 -53 110 -18 0 -37 46 -24 59 10 10 3 41 -10 41 -5 0 -13
-8 -19 -18z"/>
<path d="M6218 3523 c-16 -8 -28 -20 -28 -27 0 -8 -10 -20 -22 -28 -23 -15
-23 -16 -5 -52 9 -20 17 -43 17 -51 0 -8 4 -15 9 -15 5 0 16 -3 24 -6 11 -4
13 1 10 18 -5 26 25 71 33 51 12 -29 21 -9 19 45 -2 84 -9 91 -57 65z"/>
<path d="M7551 3493 c0 -16 4 -37 9 -48 9 -20 9 -20 9 0 1 11 8 30 16 41 16
24 11 34 -17 34 -13 0 -18 -7 -17 -27z"/>
<path d="M6889 3491 c-13 -10 -21 -22 -18 -26 11 -11 74 11 74 25 0 23 -29 23
-56 1z"/>
<path d="M7316 3443 c-4 -9 -2 -21 3 -26 15 -15 41 0 41 23 0 25 -35 28 -44 3z"/>
<path d="M6990 3436 c0 -7 11 -21 25 -30 20 -13 25 -25 25 -56 0 -22 5 -40 10
-40 6 0 10 12 10 26 0 14 4 23 10 19 16 -10 23 21 10 44 -6 12 -17 21 -24 21
-8 0 -16 7 -20 15 -7 19 -46 20 -46 1z"/>
<path d="M5763 3385 c2 -57 -3 -65 -62 -97 -20 -11 -25 -10 -37 7 -13 17 -15
17 -26 3 -16 -19 -83 -42 -98 -33 -6 4 -17 1 -25 -5 -11 -9 -15 -9 -15 -1 0 6
-4 11 -10 11 -5 0 -10 -5 -10 -12 0 -6 -10 -22 -22 -35 -22 -23 -22 -23 0 -45
22 -22 22 -22 42 0 24 25 25 25 50 12 12 -6 35 -5 71 4 30 8 57 12 61 10 4 -3
18 1 30 7 13 7 41 15 63 18 36 5 40 9 43 38 2 18 -2 42 -8 53 -8 14 -8 25 -2
33 6 7 13 29 17 50 7 37 7 37 -29 37 -36 0 -36 0 -33 -55z"/>
<path d="M4737 3404 c-4 -4 -7 -20 -7 -36 0 -26 2 -28 28 -22 29 8 53 32 48
49 -3 12 -59 19 -69 9z"/>
<path d="M7159 3408 c-11 -39 -8 -49 13 -43 17 5 19 4 9 -3 -12 -8 -11 -14 6
-36 11 -14 23 -22 27 -19 11 11 6 79 -6 91 -10 10 -46 17 -49 10z"/>
<path d="M4950 3380 c-15 -28 -12 -29 30 -8 19 10 30 18 23 18 -6 0 -18 3 -26
6 -10 3 -20 -3 -27 -16z"/>
<path d="M7716 3383 c-9 -22 -8 -23 24 -23 36 0 39 11 6 26 -20 9 -26 9 -30
-3z"/>
<path d="M4142 3366 c-22 -24 -22 -24 -2 -72 21 -48 21 -48 45 -19 31 39 38
75 16 83 -9 3 -20 12 -26 19 -8 10 -15 7 -33 -11z"/>
<path d="M4355 3370 c-3 -6 -1 -10 4 -10 18 0 12 -23 -13 -54 -24 -29 -24 -29
-31 -6 -5 17 -2 26 10 33 14 8 15 11 4 18 -28 17 -41 10 -35 -18 5 -23 1 -31
-25 -48 -40 -26 -49 -44 -40 -85 9 -46 27 -48 52 -6 17 29 24 34 39 26 10 -5
20 -15 23 -22 3 -10 8 -10 17 -2 8 8 9 14 1 18 -23 14 -12 67 19 94 17 15 30
29 30 33 0 13 -49 39 -55 29z"/>
<path d="M6688 3363 c6 -3 12 -13 12 -24 0 -23 9 -24 36 -5 24 18 12 30 -29
32 -18 1 -26 -1 -19 -3z"/>
<path d="M6084 3352 c-26 -17 0 -82 32 -82 10 0 13 13 12 45 -2 45 -16 56 -44
37z"/>
<path d="M6888 3353 c-27 -4 -27 -5 -12 -29 20 -29 55 -31 72 -4 22 36 8 43
-60 33z"/>
<path d="M6460 3315 c0 -14 5 -25 10 -25 6 0 10 11 10 25 0 14 -4 25 -10 25
-5 0 -10 -11 -10 -25z"/>
<path d="M4067 3315 c-20 -19 -19 -46 0 -52 13 -5 28 37 21 58 -3 8 -10 6 -21
-6z"/>
<path d="M4513 3296 c-13 -29 -14 -39 -4 -49 10 -10 17 -6 36 17 24 30 24 30
45 -7 26 -44 40 -47 40 -9 -1 36 -29 68 -68 77 -29 6 -33 4 -49 -29z"/>
<path d="M4875 3309 c-4 -6 -4 -13 -1 -16 8 -8 36 5 36 17 0 13 -27 13 -35 -1z"/>
<path d="M5860 3281 c0 -35 15 -48 35 -31 26 21 19 60 -10 60 -21 0 -25 -5
-25 -29z"/>
<path d="M7074 3299 c-3 -6 6 -23 20 -38 14 -15 26 -34 26 -43 0 -8 7 -21 15
-28 8 -7 15 -19 15 -27 0 -8 9 -33 20 -55 11 -23 20 -48 20 -56 0 -7 6 -12 13
-10 6 3 15 29 18 59 6 50 4 56 -20 78 -14 14 -25 30 -23 38 2 7 -12 31 -29 53
-32 39 -61 51 -75 29z"/>
<path d="M7350 3285 c-18 -21 -3 -32 16 -13 10 9 12 18 6 22 -5 3 -15 -1 -22
-9z"/>
<path d="M4417 3274 c-4 -4 -7 -18 -7 -31 0 -26 27 -32 37 -7 6 17 -19 49 -30
38z"/>
<path d="M5927 3266 c-18 -14 -17 -16 14 -46 45 -43 95 -40 91 5 -1 17 -5 36
-7 43 -6 16 -75 15 -98 -2z"/>
<path d="M6577 3263 c-13 -12 -7 -23 13 -23 11 0 20 7 20 15 0 15 -21 21 -33
8z"/>
<path d="M6700 3246 c0 -6 -3 -21 -6 -33 -6 -21 -3 -23 35 -23 40 0 41 -1 41
-35 0 -25 7 -41 25 -57 14 -12 25 -29 24 -38 -1 -8 1 -22 4 -30 3 -8 7 -22 9
-30 3 -8 19 -15 41 -17 46 -2 94 -30 101 -57 11 -42 17 -5 10 64 -10 103 -71
183 -88 116 -4 -15 -10 -26 -15 -26 -14 0 -21 43 -9 57 15 19 2 49 -16 34 -10
-9 -17 -7 -27 5 -10 12 -10 17 0 23 14 9 -7 21 -38 21 -9 0 -33 9 -54 19 -23
12 -37 15 -37 7z"/>
<path d="M4764 3228 c-58 -68 -63 -123 -12 -130 17 -2 22 -9 20 -23 -1 -12 8
-31 23 -45 26 -24 32 -49 16 -65 -5 -6 -12 -20 -16 -32 -5 -18 -2 -23 13 -23
15 0 22 9 27 36 5 28 13 39 35 47 16 6 33 21 39 34 6 13 18 26 26 29 21 8 19
34 -2 36 -10 1 -47 2 -82 2 -86 1 -100 20 -52 70 27 28 32 40 27 60 -8 32 -36
34 -62 4z"/>
<path d="M7370 3192 c0 -86 34 -114 46 -37 8 60 -1 95 -26 95 -18 0 -20 -7
-20 -58z"/>
<path d="M5027 3203 c-4 -3 -7 -17 -7 -29 0 -13 -4 -26 -10 -29 -19 -12 -11
-45 11 -45 19 0 21 4 16 36 -5 30 -3 37 13 41 25 7 26 33 2 33 -10 0 -22 -3
-25 -7z"/>
<path d="M4945 3177 c-13 -16 -27 -22 -42 -19 -15 3 -25 -2 -29 -12 -9 -24 4
-32 26 -18 11 7 26 12 35 12 15 0 38 35 33 50 -2 5 -12 -1 -23 -13z"/>
<path d="M6590 3180 c0 -6 9 -18 20 -27 24 -21 26 -56 5 -73 -18 -15 -11 -30
15 -30 11 0 22 12 29 31 15 45 14 51 -14 82 -26 27 -55 36 -55 17z"/>
<path d="M7600 3180 c0 -5 9 -10 19 -10 11 0 23 5 26 10 4 6 -5 10 -19 10 -14
0 -26 -4 -26 -10z"/>
<path d="M4114 3166 c-22 -17 -11 -35 13 -20 19 12 29 34 16 34 -5 0 -18 -6
-29 -14z"/>
<path d="M5106 3168 c-15 -8 -16 -12 -5 -19 20 -12 26 -11 32 6 8 20 -4 26
-27 13z"/>
<path d="M4513 3141 c-51 -16 -51 -16 -21 -38 26 -18 35 -20 55 -10 21 9 27 8
39 -8 8 -10 14 -25 14 -32 0 -21 19 -15 51 18 35 36 28 55 -27 65 -19 3 -37
10 -40 15 -6 11 -7 11 -71 -10z"/>
<path d="M6126 3145 c-31 -24 -6 -56 70 -89 67 -30 72 -34 52 -55 -18 -17 17
-43 47 -35 17 4 24 0 28 -18 9 -32 23 -12 30 41 5 37 3 44 -14 48 -10 3 -19
14 -19 24 0 29 -30 39 -80 28 -53 -12 -79 5 -61 39 8 16 7 21 -5 26 -22 8 -26
7 -48 -9z"/>
<path d="M7691 3125 c-11 -19 -24 -35 -29 -35 -5 0 -9 -13 -10 -30 0 -20 4
-30 14 -30 8 0 14 7 14 15 0 8 6 12 13 10 19 -7 51 43 38 59 -6 8 -9 21 -5 30
12 30 -14 16 -35 -19z"/>
<path d="M4197 3133 c-18 -17 -5 -33 28 -33 28 0 35 4 35 20 0 15 -7 20 -28
20 -16 0 -32 -3 -35 -7z"/>
<path d="M5388 3113 c-14 -16 -28 -36 -32 -47 -5 -15 -13 -17 -41 -12 -33 7
-36 5 -46 -23 -6 -17 -17 -31 -24 -31 -17 0 -21 -6 -30 -47 -6 -32 -5 -33 23
-33 28 0 63 29 74 61 2 6 21 12 43 12 34 2 41 6 50 32 5 17 20 41 32 55 13 14
23 33 23 42 0 28 -43 22 -72 -9z"/>
<path d="M7078 3135 c-3 -3 -3 -16 0 -30 9 -48 52 -58 52 -13 0 27 -37 57 -52
43z"/>
<path d="M5610 3108 c-19 -11 -38 -25 -42 -31 -20 -32 44 -37 66 -6 9 13 31
25 52 28 21 3 39 12 42 19 6 20 -78 13 -118 -10z"/>
<path d="M6467 3124 c-10 -11 3 -24 24 -24 10 0 19 7 19 15 0 15 -31 21 -43 9z"/>
<path d="M5950 3085 c-8 -10 -9 -19 0 -34 8 -15 8 -27 0 -42 -18 -32 -6 -59
49 -116 28 -28 55 -63 61 -77 5 -14 16 -26 25 -26 18 0 18 -1 1 -36 -15 -28
-13 -38 19 -78 14 -18 16 -19 34 -2 29 26 35 65 15 88 -10 10 -19 35 -21 55
-3 40 -9 49 -37 55 -36 6 -96 107 -96 160 0 53 -26 81 -50 53z"/>
<path d="M4502 3034 c-5 -8 -20 -21 -33 -27 -32 -17 -37 -53 -8 -60 27 -7 39
-1 39 20 0 9 9 27 21 39 12 12 18 27 14 33 -9 16 -23 14 -33 -5z"/>
<path d="M6675 3039 c-12 -18 28 -47 52 -38 34 13 35 26 1 38 -39 14 -45 14
-53 0z"/>
<path d="M5800 3033 c-26 -10 -30 -26 -23 -92 8 -80 22 -108 64 -129 21 -11
38 -29 44 -47 5 -16 15 -34 22 -38 7 -4 13 -13 13 -20 0 -7 10 -18 22 -26 19
-12 23 -11 35 5 7 10 13 24 13 30 0 24 -23 64 -37 64 -23 0 -95 51 -100 71 -3
10 -12 19 -20 19 -12 0 -14 7 -7 38 11 52 11 125 -1 128 -5 1 -17 0 -25 -3z"/>
<path d="M6453 3018 c2 -7 10 -13 17 -13 7 0 15 6 18 13 2 7 -5 12 -18 12 -13
0 -20 -5 -17 -12z"/>
<path d="M7593 3000 c-20 -18 -30 -35 -27 -44 3 -9 -4 -29 -16 -46 -18 -25
-27 -30 -49 -25 -21 4 -30 0 -46 -26 -11 -17 -30 -35 -43 -40 -18 -7 -21 -14
-16 -34 4 -18 2 -27 -10 -31 -22 -8 -20 -40 2 -42 43 -3 82 9 82 26 0 9 7 26
15 36 8 11 15 30 15 43 0 28 24 40 45 23 11 -9 17 -5 31 22 10 18 18 38 19 43
0 6 16 12 35 15 31 5 35 9 41 43 5 31 2 41 -15 52 -26 19 -25 19 -63 -15z"/>
<path d="M5687 3002 c-9 -10 -17 -23 -17 -29 0 -5 -9 -18 -20 -28 -11 -10 -20
-22 -20 -27 0 -14 40 -9 46 7 3 8 14 17 24 20 26 8 36 44 18 61 -12 13 -17 12
-31 -4z"/>
<path d="M7147 3013 c-4 -3 -7 -21 -7 -40 0 -26 4 -33 20 -33 17 0 20 7 20 40
0 38 -14 52 -33 33z"/>
<path d="M5534 2989 c-9 -15 11 -33 30 -26 9 4 13 13 10 22 -7 17 -30 20 -40
4z"/>
<path d="M6420 2990 c-22 -6 -23 -8 -7 -15 20 -8 47 0 47 15 0 11 -4 11 -40 0z"/>
<path d="M7050 2986 c0 -8 4 -17 9 -20 11 -7 33 18 24 27 -12 12 -33 7 -33 -7z"/>
<path d="M7445 2986 c-17 -12 -18 -15 -3 -30 22 -21 35 -20 43 4 12 37 -8 50
-40 26z"/>
<path d="M4536 2954 c-28 -36 -28 -36 -8 -56 19 -19 21 -19 46 -3 30 20 33 44
9 74 -18 22 -18 22 -47 -15z"/>
<path d="M5150 2969 c0 -12 -14 -34 -31 -50 -34 -32 -32 -44 8 -51 16 -3 35
-8 43 -12 30 -13 41 28 23 84 -16 50 -43 68 -43 29z"/>
<path d="M4666 2971 c-11 -17 13 -61 33 -61 24 0 34 25 21 51 -11 20 -45 26
-54 10z"/>
<path d="M6143 2969 c-19 -19 -16 -39 11 -95 41 -85 76 -97 73 -25 -1 34 -6
42 -33 55 -25 11 -33 22 -36 46 -2 25 -5 29 -15 19z"/>
<path d="M6491 2941 c-26 -37 -26 -64 0 -118 26 -55 36 -54 45 3 4 28 13 48
23 51 34 12 39 22 27 48 -15 34 -22 31 -43 -15 -13 -30 -22 -38 -32 -31 -11 7
-10 13 8 32 24 26 28 59 7 59 -8 0 -24 -13 -35 -29z"/>
<path d="M4377 2954 c-11 -12 13 -44 33 -44 23 0 25 8 6 33 -14 18 -28 22 -39
11z"/>
<path d="M4960 2940 c0 -13 -10 -24 -25 -30 -14 -5 -30 -21 -37 -35 -6 -14
-17 -25 -25 -25 -7 0 -13 -5 -13 -10 0 -6 6 -10 13 -9 6 1 20 -1 30 -5 24 -11
47 0 47 23 0 11 9 23 21 26 13 4 18 12 15 22 -3 8 -6 26 -6 39 0 13 -4 24 -10
24 -5 0 -10 -9 -10 -20z"/>
<path d="M6722 2923 c2 -20 9 -29 26 -31 30 -4 41 24 16 43 -30 23 -46 18 -42
-12z"/>
<path d="M5347 2885 c-35 -35 -35 -35 -30 -132 4 -103 16 -138 27 -79 5 25 15
39 34 48 25 12 27 19 34 93 9 112 -6 129 -65 70z"/>
<path d="M6326 2898 c-18 -71 8 -107 44 -61 25 32 25 52 3 69 -26 19 -40 17
-47 -8z"/>
<path d="M4640 2870 c0 -25 4 -30 25 -30 30 0 33 20 7 43 -26 24 -32 21 -32
-13z"/>
<path d="M5560 2862 c0 -37 12 -40 42 -12 21 19 21 20 2 20 -11 0 -25 5 -32
12 -9 9 -12 5 -12 -20z"/>
<path d="M7043 2825 c-3 -9 -3 -19 1 -22 8 -9 37 18 30 28 -8 14 -24 11 -31
-6z"/>
<path d="M4538 2801 c4 -32 26 -58 36 -43 9 15 -10 67 -26 70 -11 2 -14 -4
-10 -27z"/>
<path d="M5020 2805 c-17 -18 -34 -25 -62 -25 -33 0 -40 -4 -51 -32 -11 -28
-18 -32 -52 -32 -40 -1 -40 -1 -39 -51 1 -38 5 -51 18 -53 12 -3 16 4 16 25 0
39 14 57 47 59 15 1 33 2 39 3 6 0 16 12 23 24 22 42 113 71 139 45 9 -9 12
-9 12 1 0 8 7 10 20 6 14 -4 22 -1 26 10 9 23 -4 31 -26 17 -29 -18 -48 -15
-55 8 -9 27 -27 25 -55 -5z"/>
<path d="M6407 2804 c-16 -16 -7 -44 14 -44 15 0 20 5 17 22 -3 22 -19 33 -31
22z"/>
<path d="M5461 2770 c1 -60 11 -75 52 -72 19 2 49 -4 65 -12 26 -13 32 -14 42
-1 22 27 1 38 -61 31 -58 -7 -59 -6 -59 17 0 14 -9 35 -20 48 -19 24 -19 24
-19 -11z"/>
<path d="M6756 2784 c-9 -23 7 -37 34 -29 13 4 20 13 18 23 -4 23 -44 28 -52
6z"/>
<path d="M5734 2759 c-8 -13 3 -24 34 -34 28 -8 31 20 3 35 -25 13 -28 13 -37
-1z"/>
<path d="M6552 2749 c-15 -24 -10 -34 13 -26 15 6 22 47 7 47 -4 0 -13 -9 -20
-21z"/>
<path d="M4682 2730 c-16 -26 -8 -40 23 -40 32 0 37 12 19 38 -19 27 -26 27
-42 2z"/>
<path d="M5051 2726 c-13 -15 -12 -73 2 -68 4 1 14 14 23 28 14 23 14 28 2 41
-13 12 -16 12 -27 -1z"/>
<path d="M4465 2719 c-9 -13 -7 -15 28 -23 31 -7 35 1 10 20 -22 16 -30 17
-38 3z"/>
<path d="M5173 2703 c-36 -33 -44 -52 -31 -75 10 -20 33 -14 42 10 3 9 12 34
19 55 17 44 11 46 -30 10z"/>
<path d="M6875 2710 c-8 -13 4 -32 16 -25 12 8 12 35 0 35 -6 0 -13 -4 -16
-10z"/>
<path d="M6967 2688 c-10 -36 14 -57 43 -38 13 9 13 12 -2 21 -10 5 -18 17
-18 24 0 23 -17 18 -23 -7z"/>
<path d="M7331 2693 c-8 -14 -13 -15 -19 -5 -9 14 -34 -8 -45 -41 -4 -9 -19
-23 -34 -29 -28 -12 -57 -43 -59 -63 -1 -5 -2 -14 -3 -19 0 -5 -8 -3 -17 4
-19 16 -39 -1 -49 -42 -5 -21 -3 -27 14 -33 33 -10 75 16 82 50 5 25 7 27 14
12 10 -24 38 -2 29 25 -7 23 12 49 32 41 8 -3 14 1 15 8 1 8 2 22 3 31 2 26
20 23 26 -3 6 -26 30 -38 30 -16 0 8 17 29 38 46 32 27 34 30 15 31 -12 0 -25
5 -28 10 -10 16 -33 12 -44 -7z"/>
<path d="M6550 2676 c-20 -25 7 -54 29 -32 14 15 14 17 0 32 -14 14 -17 14
-29 0z"/>
<path d="M5217 2668 c-6 -17 10 -58 23 -58 15 0 12 46 -4 59 -10 9 -15 8 -19
-1z"/>
<path d="M6426 2673 c-3 -3 -6 -17 -6 -31 0 -21 2 -22 15 -12 8 7 15 18 15 26
0 15 -15 26 -24 17z"/>
<path d="M6337 2663 c-11 -10 -8 -43 3 -43 6 0 10 11 10 25 0 26 -2 29 -13 18z"/>
<path d="M7100 2649 c0 -18 2 -19 15 -9 8 7 15 16 15 21 0 5 -7 9 -15 9 -9 0
-15 -9 -15 -21z"/>
<path d="M5862 2648 c-7 -7 -12 -29 -12 -49 0 -21 -5 -41 -11 -44 -21 -13 -4
-40 26 -42 17 0 39 -3 50 -5 26 -4 34 55 11 80 -8 10 -19 29 -25 45 -12 30
-21 33 -39 15z"/>
<path d="M4943 2629 c-14 -5 -23 -17 -23 -28 0 -22 -39 -39 -59 -26 -19 11
-33 -5 -20 -21 9 -12 9 -20 -2 -40 -9 -18 -10 -30 -2 -42 17 -27 37 -20 56 21
13 28 23 37 41 37 22 0 26 6 31 44 9 57 5 66 -22 55z"/>
<path d="M5712 2620 c-18 -15 -21 -23 -14 -37 11 -20 5 -70 -9 -79 -13 -7 -11
-54 1 -54 6 0 15 -10 19 -22 9 -23 9 -23 20 6 7 16 9 36 7 43 -3 8 4 32 15 55
15 29 19 50 14 74 -7 38 -20 42 -53 14z"/>
<path d="M5067 2613 c-12 -20 -18 -75 -11 -109 7 -37 7 -37 20 -13 17 34 22
121 7 126 -6 2 -13 0 -16 -4z"/>
<path d="M8320 2612 c0 -5 7 -23 15 -38 15 -29 15 -29 15 -3 0 15 -7 32 -15
39 -9 7 -15 8 -15 2z"/>
<path d="M7964 2565 c0 -38 7 -43 27 -19 9 11 10 20 3 32 -18 28 -30 23 -30
-13z"/>
<path d="M6410 2582 c0 -21 33 -72 46 -72 19 0 18 36 -3 60 -18 20 -43 27 -43
12z"/>
<path d="M6691 2576 c-9 -10 -9 -16 -1 -21 17 -10 37 12 24 25 -8 8 -15 6 -23
-4z"/>
<path d="M5310 2550 c-29 -7 -39 -39 -16 -52 9 -5 16 -14 16 -21 0 -7 23 -20
51 -30 48 -17 50 -19 34 -37 -15 -16 -15 -20 3 -51 28 -50 38 -46 45 17 7 66
-5 91 -47 102 -21 6 -33 17 -40 39 -14 40 -16 41 -46 33z"/>
<path d="M5476 2534 c-9 -23 -8 -24 12 -24 24 0 32 8 25 26 -7 19 -29 18 -37
-2z"/>
<path d="M6010 2525 c0 -14 7 -28 16 -32 8 -3 21 -17 27 -32 11 -26 11 -26 17
14 7 45 -10 75 -42 75 -13 0 -18 -7 -18 -25z"/>
<path d="M7540 2515 c0 -20 4 -26 18 -23 9 2 17 12 17 23 0 11 -8 21 -17 23
-14 3 -18 -3 -18 -23z"/>
<path d="M6537 2514 c-10 -10 -9 -72 1 -78 22 -13 32 11 19 48 -7 20 -16 34
-20 30z"/>
<path d="M6135 2480 c-9 -27 21 -72 43 -68 17 4 18 14 7 66 -7 28 -41 29 -50
2z"/>
<path d="M7900 2471 c5 -11 10 -31 10 -45 0 -44 18 -28 22 19 3 41 1 45 -20
45 -19 0 -21 -3 -12 -19z"/>
<path d="M6990 2463 c-8 -2 -21 -7 -29 -9 -12 -4 -11 -7 2 -17 14 -11 14 -15
-8 -39 -14 -16 -34 -28 -48 -28 -14 0 -27 -7 -31 -15 -6 -17 48 -22 59 -5 3 5
12 7 19 4 8 -3 17 -1 21 5 3 6 15 11 26 11 26 0 57 33 48 51 -4 8 -10 22 -13
32 -5 17 -18 20 -46 10z"/>
<path d="M7463 2433 c-13 -8 -23 -21 -23 -28 0 -21 34 -6 47 21 13 28 7 29
-24 7z"/>
<path d="M5013 2425 c-17 -19 -16 -30 2 -45 22 -18 39 1 31 34 -7 29 -15 32
-33 11z"/>
<path d="M4230 2415 c0 -8 9 -15 20 -15 11 0 20 7 20 15 0 8 -9 15 -20 15 -11
0 -20 -7 -20 -15z"/>
<path d="M5993 2399 c-6 -6 -9 -17 -6 -24 2 -8 -5 -18 -16 -25 -15 -7 -21 -21
-21 -44 0 -19 -7 -39 -15 -46 -8 -7 -15 -19 -15 -28 0 -13 4 -12 23 5 12 11
28 18 35 16 8 -3 12 6 12 27 0 17 5 41 12 53 12 22 18 77 8 77 -4 0 -11 -5
-17 -11z"/>
<path d="M5585 2391 c-3 -5 0 -13 5 -16 16 -10 62 4 55 15 -8 13 -52 13 -60 1z"/>
<path d="M5734 2388 c3 -7 9 -21 12 -30 7 -21 24 -24 24 -5 -1 14 -24 47 -34
47 -4 0 -5 -6 -2 -12z"/>
<path d="M5510 2346 c-8 -11 -9 -20 0 -35 16 -30 30 -26 30 8 0 35 -13 47 -30
27z"/>
<path d="M5877 2354 c-14 -15 -6 -34 14 -34 14 0 19 5 17 17 -3 18 -20 27 -31
17z"/>
<path d="M6781 2311 c-6 -11 -11 -27 -11 -35 0 -9 -7 -16 -15 -16 -10 0 -15
-10 -15 -26 0 -20 3 -24 13 -16 6 6 26 12 42 14 28 3 30 5 30 48 0 50 -25 68
-44 31z"/>
<path d="M5870 2252 c0 -5 -11 -14 -25 -20 -14 -6 -25 -19 -25 -27 0 -22 29
-31 52 -16 10 6 23 9 28 6 6 -4 10 -2 10 3 0 5 -10 12 -22 16 -18 4 -20 8 -10
18 15 15 16 28 2 28 -5 0 -10 -4 -10 -8z"/>
<path d="M4436 2231 c-7 -11 22 -23 35 -15 5 3 7 10 4 15 -8 12 -32 12 -39 0z"/>
<path d="M5382 2233 c-22 -9 -35 -43 -21 -59 17 -21 27 -17 42 14 20 39 12 58
-21 45z"/>
<path d="M6015 2217 c4 -15 1 -28 -9 -36 -8 -7 -12 -19 -9 -27 8 -21 23 -17
23 6 0 13 5 18 14 14 9 -3 20 3 28 15 7 12 20 21 30 21 34 0 27 18 -10 24 -65
10 -73 9 -67 -17z"/>
<path d="M5563 2155 c-8 -22 6 -33 17 -15 13 20 12 30 0 30 -6 0 -13 -7 -17
-15z"/>
<path d="M4460 2094 c-13 -34 -7 -40 26 -26 29 14 30 45 1 50 -11 2 -21 -6
-27 -24z"/>
<path d="M6880 2035 c0 -8 7 -15 15 -15 8 0 15 7 15 15 0 8 -7 15 -15 15 -8 0
-15 -7 -15 -15z"/>
<path d="M4625 1981 c-9 -16 3 -31 26 -31 14 0 19 6 17 17 -4 20 -33 29 -43
14z"/>
<path d="M6700 1929 c-19 -3 -28 -7 -19 -8 8 0 25 -10 37 -21 12 -11 30 -20
41 -20 17 0 18 3 8 25 -15 30 -22 33 -67 24z"/>
<path d="M4860 1891 c0 -5 5 -22 10 -37 14 -35 34 -18 24 20 -6 24 -34 38 -34
17z"/>
<path d="M4825 1800 c-8 -13 14 -42 26 -34 5 3 9 14 9 25 0 20 -24 26 -35 9z"/>
<path d="M6525 1801 c-18 -7 -18 -8 -1 -18 19 -10 66 4 66 20 0 9 -39 8 -65
-2z"/>
<path d="M6332 1694 c4 -21 22 -23 26 -1 2 10 -3 17 -13 17 -10 0 -15 -6 -13
-16z"/>
<path d="M4956 1664 c-9 -22 5 -36 24 -24 13 8 13 11 -1 25 -15 15 -17 15 -23
-1z"/>
<path d="M5422 1571 c-11 -7 -10 -10 3 -15 20 -7 38 1 30 15 -7 11 -16 11 -33
0z"/>
<path d="M8092 1560 c-17 -27 -15 -50 3 -50 20 0 28 21 18 48 -8 21 -9 21 -21
2z"/>
<path d="M5800 1431 c0 -11 29 -35 35 -29 10 9 -7 38 -21 38 -8 0 -14 -4 -14
-9z"/>
<path d="M5374 1344 c3 -9 6 -18 6 -21 0 -3 7 0 15 7 21 18 19 30 -6 30 -15 0
-19 -4 -15 -16z"/>
<path d="M7872 873 c5 -25 28 -28 28 -4 0 12 -6 21 -16 21 -9 0 -14 -7 -12
-17z"/>
<path d="M6000 817 c0 -14 20 -37 32 -37 4 0 8 11 8 25 0 18 -5 25 -20 25 -11
0 -20 -6 -20 -13z"/>
<path d="M5543 769 c-11 -4 -24 -12 -28 -18 -3 -6 -21 -18 -38 -26 -18 -8 -39
-19 -47 -25 -8 -5 -26 -15 -40 -20 -28 -12 -86 -51 -111 -75 -9 -8 -20 -15
-26 -15 -5 0 -18 -9 -28 -20 -10 -11 -22 -20 -27 -20 -19 0 -240 -194 -249
-218 -2 -6 -51 -61 -109 -123 -142 -153 -142 -152 -169 -171 -37 -26 -17 -41
48 -36 73 6 138 33 122 51 -13 16 4 37 30 37 11 0 22 13 29 35 21 63 119 90
138 37 5 -15 28 -47 51 -71 23 -25 40 -50 37 -57 -3 -7 3 -14 12 -16 49 -10
1233 3 1230 14 -5 15 35 58 55 58 9 0 19 5 22 10 9 15 41 12 56 -6 7 -9 23
-20 36 -25 13 -5 23 -15 23 -24 0 -20 63 -45 116 -45 60 0 57 18 -8 60 -29 19
-73 53 -97 77 -24 24 -47 43 -51 43 -6 0 -33 23 -134 112 -17 16 -36 28 -43
28 -7 0 -13 6 -13 13 0 8 -9 18 -19 23 -11 5 -39 26 -63 46 -24 20 -74 62
-113 93 -38 31 -82 66 -96 78 -15 12 -37 30 -50 40 -13 9 -38 28 -55 42 -18
14 -36 25 -41 25 -6 0 -18 9 -28 20 -25 27 -77 43 -107 31 -13 -5 -50 -12 -82
-16 -57 -7 -57 -7 -68 23 -13 34 -33 43 -65 31z m149 -183 c15 -18 18 -19 23
-4 5 12 20 16 58 16 56 1 87 -20 87 -57 0 -25 37 -48 53 -32 28 28 65 5 47
-29 -9 -17 -8 -20 8 -20 10 0 22 -3 26 -7 4 -4 21 -8 38 -9 32 -2 36 -5 108
-100 32 -42 48 -54 95 -69 67 -21 92 -55 59 -80 -18 -14 -9 -21 20 -16 23 5
38 -9 27 -23 -8 -10 -9 -16 -1 -21 20 -12 -2 -27 -32 -21 -35 7 -80 -2 -72
-15 3 -5 22 -9 44 -9 37 0 38 -1 27 -25 -14 -30 -33 -32 -40 -5 -6 25 -18 25
-47 0 -28 -25 -57 -26 -82 -3 -13 12 -21 14 -26 6 -5 -8 -20 -8 -55 0 -37 8
-53 8 -68 -1 -23 -15 -49 -16 -49 -2 0 6 -9 10 -20 10 -11 0 -20 -7 -20 -15 0
-12 -13 -15 -61 -15 -50 0 -60 3 -55 15 6 17 -19 21 -30 4 -4 -7 -34 -9 -80
-8 -40 2 -76 0 -80 -4 -13 -13 -152 -8 -157 6 -3 9 -9 9 -26 0 -27 -17 -56
-16 -111 2 -25 8 -58 17 -73 20 -23 5 -26 9 -17 20 9 11 7 14 -11 17 -29 4
-37 28 -10 28 12 0 21 4 21 9 0 4 -11 6 -24 4 -17 -4 -30 2 -42 16 -10 12 -24
21 -31 21 -18 0 -16 21 3 35 14 10 15 17 5 48 -7 20 -10 41 -7 46 4 5 2 12 -4
16 -15 9 -12 28 3 22 14 -5 87 54 87 70 0 4 15 14 33 22 38 17 77 51 77 69 0
7 15 12 43 12 54 1 81 20 71 52 -6 20 -5 21 9 10 11 -9 17 -10 22 -2 4 7 18 9
31 6 13 -4 24 -2 24 3 0 28 158 17 182 -13z m-592 -287 c0 -20 -15 -26 -25 -9
-9 15 3 43 15 35 5 -3 10 -15 10 -26z"/>
<path d="M5820 470 c0 -11 7 -20 15 -20 8 0 15 9 15 20 0 11 -7 20 -15 20 -8
0 -15 -9 -15 -20z"/>
<path d="M5180 210 c-9 -16 -8 -22 4 -26 21 -8 36 3 36 27 0 25 -26 25 -40 -1z"/>
<path d="M4930 710 c0 -5 5 -10 10 -10 6 0 15 -10 20 -22 8 -22 9 -22 9 -2 1
20 -16 44 -31 44 -4 0 -8 -4 -8 -10z"/>
<path d="M9920 356 c0 -14 5 -26 10 -26 6 0 10 9 10 19 0 11 -4 23 -10 26 -6
4 -10 -5 -10 -19z"/>
<path d="M6703 246 c4 -14 47 -21 47 -8 0 5 -11 12 -25 15 -16 3 -24 0 -22 -7z"/>
<path d="M8038 103 c23 -2 59 -2 80 0 20 2 1 4 -43 4 -44 0 -61 -2 -37 -4z"/>
<path d="M11387 103 c18 -2 50 -2 70 0 21 2 7 4 -32 4 -38 0 -55 -2 -38 -4z"/>
<path d="M11718 83 c23 -2 59 -2 80 0 20 2 1 4 -43 4 -44 0 -61 -2 -37 -4z"/>
</g>
</svg>
